<svg width="80" height="80" viewBox="0 0 80 80" fill="none" xmlns="http://www.w3.org/2000/svg">
<path d="M76.25 55H75.6689L72.3356 50H75C75.3315 50 75.6495 49.8683 75.8839 49.6339C76.1183 49.3995 76.25 49.0815 76.25 48.75V45C76.25 44.6685 76.1183 44.3505 75.8839 44.1161C75.6495 43.8817 75.3315 43.75 75 43.75H72.0567L71.2673 32.6974L73.6606 26.7142C73.7197 26.5665 73.75 26.409 73.75 26.25V20.0389C73.7533 19.0389 73.4551 18.0611 72.8945 17.233C72.3338 16.4049 71.5367 15.7649 70.607 15.3966L67.2766 14.0643C66.6164 13.8002 65.9018 13.7002 65.1945 13.7731C64.4871 13.846 63.8079 14.0895 63.2154 14.4827C62.6229 14.876 62.1346 15.4071 61.7927 16.0307C61.4507 16.6542 61.2652 17.3514 61.2521 18.0624C60.7797 17.965 60.2906 17.9843 59.8273 18.1185C59.364 18.2526 58.9404 18.4977 58.5932 18.8325C58.2459 19.1673 57.9855 19.5817 57.8345 20.0397C57.6834 20.4978 57.6463 20.9858 57.7264 21.4615L58.767 27.7055C58.7875 27.8285 58.8262 27.9476 58.882 28.0591L61.1415 32.578L58.4042 40.1055C57.29 40.2511 56.2003 40.5447 55.1638 40.9787L54.6991 40.4366C54.6005 40.3214 54.4817 40.2252 54.3486 40.1526L40.837 32.7827L37.8288 28.7717C38.9032 27.8351 39.7645 26.6792 40.3547 25.3817C40.9449 24.0842 41.2501 22.6754 41.25 21.25V9.375C41.2479 7.55227 40.523 5.80478 39.2341 4.51591C37.9452 3.22705 36.1977 2.50206 34.375 2.5H27.5C25.843 2.50188 24.2544 3.16097 23.0827 4.33266C21.911 5.50436 21.2519 7.09298 21.25 8.75V21.25C21.2499 22.6754 21.5552 24.0842 22.1453 25.3817C22.7355 26.6792 23.5968 27.8351 24.6713 28.7717L21.663 32.7827L10.1125 39.0829C9.34146 39.5041 8.66777 40.0828 8.13525 40.7815C7.60272 41.4802 7.22329 42.2832 7.02164 43.1383L2.53327 62.2138C2.49388 62.381 2.48942 62.5545 2.52014 62.7235L5.02014 76.4735C5.0725 76.7616 5.22429 77.0221 5.44904 77.2097C5.67379 77.3973 5.95726 77.5 6.25001 77.5H70C70.19 77.5 70.3774 77.4567 70.5481 77.3734C70.7188 77.2901 70.8683 77.169 70.9852 77.0192C71.1021 76.8695 71.1834 76.6951 71.2228 76.5093C71.2622 76.3235 71.2588 76.1311 71.2127 75.9468L69.9627 70.9468C69.8951 70.6764 69.739 70.4363 69.5193 70.2647C69.2995 70.0932 69.0288 70 68.75 70H61.25V60H63.75V59.9957C64.3314 60.773 65.086 61.4041 65.954 61.8388C66.8219 62.2736 67.7793 62.4999 68.75 62.5H71.25C72.907 62.4981 74.4956 61.839 75.6673 60.6673C76.839 59.4956 77.4981 57.907 77.5 56.25C77.5 55.9185 77.3683 55.6005 77.1339 55.3661C76.8995 55.1317 76.5815 55 76.25 55ZM72.6644 55H67.3356L70 51.0034L72.6644 55ZM73.75 47.5H67.9166L65.2499 45.4999C63.7353 44.364 61.8932 43.75 60 43.75C58.1068 43.75 56.2646 44.364 54.75 45.4999L52.0834 47.5H46.25V46.25H51.25C51.5204 46.25 51.7836 46.1623 52 46.0001L54 44.5C55.731 43.2018 57.8363 42.5 60 42.5C62.1637 42.5 64.269 43.2018 66 44.5L68 46.0001C68.2164 46.1623 68.4796 46.25 68.75 46.25H73.75V47.5ZM56.25 55H55.6689L52.3356 50H52.5C52.7704 50 53.0336 49.9123 53.25 49.7501L56.25 47.5C56.9907 46.9467 57.8443 46.5635 58.75 46.3779V57.5H57.3742C57.458 57.0886 57.5001 56.6698 57.5 56.25C57.5 55.9185 57.3683 55.6005 57.1339 55.3661C56.8995 55.1317 56.5815 55 56.25 55ZM51.25 60H48.75C47.9747 59.9991 47.2187 59.7583 46.5856 59.3107C45.9526 58.8632 45.4736 58.2306 45.2142 57.5H54.7858C54.5265 58.2306 54.0474 58.8632 53.4144 59.3107C52.7813 59.7583 52.0253 59.9991 51.25 60ZM47.3356 55L50 51.0034L52.6644 55H47.3356ZM69.1666 43.75L67.5 42.5C65.6301 41.1043 63.4091 40.256 61.0849 40.0494L63.3755 33.75H68.8361L69.5504 43.75H69.1666ZM60.4478 20.5486C60.5512 20.4971 60.6697 20.4851 60.7813 20.5147C60.8929 20.5444 60.9899 20.6136 61.0541 20.7095L62.71 23.1934C62.8306 23.3743 62.9964 23.5207 63.1909 23.618C63.7358 23.8882 64.1941 24.3056 64.5139 24.8229C64.8336 25.3403 65.002 25.9369 65 26.5451V27.5H67.5V26.5451C67.5036 25.5318 67.2387 24.5356 66.7324 23.6579C66.2261 22.7802 65.4964 22.0521 64.6175 21.5479L63.75 20.2464V18.1444C63.75 17.8348 63.8259 17.5299 63.971 17.2565C64.1161 16.983 64.326 16.7493 64.5824 16.5757C64.8388 16.4021 65.1338 16.2941 65.4416 16.2609C65.7494 16.2277 66.0606 16.2705 66.348 16.3855L69.6785 17.7177C70.1434 17.9019 70.5419 18.2219 70.8223 18.6359C71.1026 19.05 71.2516 19.5389 71.25 20.0389V26.0092L69.1538 31.25H63.2726L61.2021 27.1091L60.1923 21.0504C60.1753 20.9504 60.1909 20.8476 60.2369 20.7572C60.283 20.6667 60.3569 20.5936 60.4478 20.5486ZM18.4812 37.3659L21.25 35.8557V46.7274L16.4869 44.3459L18.4812 37.3659ZM29.8616 45H32.6384L34.9377 64.5444L31.25 68.2323L27.5623 64.5444L29.8616 45ZM32.849 42.5H29.651L28.9302 40.3376L31.25 38.0178L33.5698 40.3376L32.849 42.5ZM35.9076 39.1399L33.0177 36.25L37.1862 32.0816L38.5365 33.8819L35.9076 39.1399ZM35.3773 30.3549L31.25 34.4822L27.1227 30.3549C28.4187 30.9448 29.8261 31.25 31.25 31.25C32.6739 31.25 34.0813 30.9448 35.3773 30.3549ZM29.4823 36.25L26.5924 39.1399L23.9635 33.8819L25.3138 32.0816L29.4823 36.25ZM21.25 61.3479L16.7177 53.0386L21.25 50.7725V61.3479ZM23.75 39.0451L25.132 41.8091C25.2113 41.9678 25.3236 42.1078 25.4612 42.2198C25.5988 42.3317 25.7588 42.4131 25.9303 42.4585C26.1018 42.5038 26.2811 42.5121 26.4561 42.4829C26.6311 42.4536 26.7978 42.3874 26.9452 42.2886L27.476 43.8808L25.0085 64.854C24.9865 65.0415 25.0072 65.2316 25.0691 65.41C25.1311 65.5884 25.2326 65.7504 25.3661 65.8839L30.3661 70.8839C30.6006 71.1183 30.9185 71.25 31.25 71.25C31.5815 71.25 31.8994 71.1183 32.1339 70.8839L37.1339 65.8839C37.2674 65.7504 37.3689 65.5884 37.4309 65.41C37.4928 65.2316 37.5135 65.0415 37.4915 64.854L35.024 43.8808L35.5548 42.2886C35.7022 42.3873 35.8689 42.4535 36.0439 42.4828C36.2189 42.5121 36.3982 42.5038 36.5697 42.4584C36.7412 42.413 36.9011 42.3317 37.0388 42.2197C37.1764 42.1078 37.2887 41.9678 37.368 41.8091L38.75 39.0451V75H23.75V39.0451ZM38.75 9.375V9.71466C38.63 9.65666 38.5142 9.59049 38.4033 9.5166L36.2489 8.08029C36.2416 7.0298 35.9385 6.0026 35.3742 5.1165C36.334 5.34288 37.1894 5.88642 37.802 6.65921C38.4146 7.432 38.7486 8.38885 38.75 9.375ZM27.5 5H30.625C31.4538 5 32.2487 5.32924 32.8347 5.91529C33.4208 6.50134 33.75 7.2962 33.75 8.125C33.75 8.9538 33.4208 9.74866 32.8347 10.3347C32.2487 10.9208 31.4538 11.25 30.625 11.25H30.5177C30.1213 11.2511 29.7285 11.1735 29.3623 11.0218C28.996 10.87 28.6634 10.6472 28.3839 10.3661C27.8727 9.85211 27.2646 9.44464 26.5949 9.16724C25.9252 8.88985 25.2072 8.74803 24.4823 8.75H23.75C23.7511 7.75578 24.1466 6.80261 24.8496 6.09959C25.5526 5.39657 26.5058 5.00112 27.5 5ZM23.75 21.25V11.25H24.4823C24.8787 11.2489 25.2715 11.3265 25.6377 11.4782C26.004 11.63 26.3366 11.8528 26.6161 12.1339C27.1273 12.6479 27.7354 13.0554 28.4051 13.3328C29.0748 13.6102 29.7929 13.752 30.5177 13.75H30.625C31.6623 13.749 32.6792 13.4614 33.5634 12.919C34.4476 12.3765 35.1648 11.6004 35.6357 10.6761L37.0166 11.5967C37.5452 11.9488 38.1321 12.2043 38.75 12.3512V21.25C38.75 23.2391 37.9598 25.1468 36.5533 26.5533C35.1468 27.9598 33.2391 28.75 31.25 28.75C29.2609 28.75 27.3532 27.9598 25.9467 26.5533C24.5402 25.1468 23.75 23.2391 23.75 21.25ZM12.5 61.25V75H7.29325L5.02648 62.5327L9.45519 43.7108C9.57617 43.1978 9.80383 42.716 10.1233 42.2967C10.4429 41.8775 10.8471 41.5303 11.3097 41.2776L15.4011 39.0459L13.7981 44.6565C13.718 44.9369 13.7384 45.2364 13.8558 45.5033C13.9732 45.7702 14.1802 45.9876 14.441 46.118L19.7049 48.75L14.441 51.382C14.2908 51.4571 14.1573 51.5617 14.0484 51.6895C13.9396 51.8173 13.8575 51.9658 13.8073 52.126C13.7571 52.2862 13.7396 52.4549 13.756 52.622C13.7724 52.7891 13.8223 52.9512 13.9027 53.0986L21.25 66.5687V75H15V61.25H12.5ZM41.25 35.8557L52.902 42.2113C52.7662 42.3048 52.6322 42.401 52.5 42.5L50.8334 43.75H45C44.6685 43.75 44.3505 43.8817 44.1161 44.1161C43.8817 44.3505 43.75 44.6685 43.75 45V48.75C43.75 49.0815 43.8817 49.3995 44.1161 49.6339C44.3505 49.8683 44.6685 50 45 50H47.6644L44.3311 55H43.75C43.4185 55 43.1005 55.1317 42.8661 55.3661C42.6317 55.6005 42.5 55.9185 42.5 56.25C42.5019 57.907 43.161 59.4956 44.3327 60.6673C45.5044 61.839 47.093 62.4981 48.75 62.5H50.8507L48.9276 75H41.25V35.8557ZM68.399 75H51.601L52.226 72.5H67.774L68.399 75ZM58.75 70H52.2262L53.4412 62.1025C54.5588 61.6816 55.5331 60.9507 56.25 59.9957V60H58.75V70ZM62.5 56.25C62.4999 56.6698 62.542 57.0886 62.6258 57.5H61.25V46.3779C62.1557 46.5635 63.0093 46.9467 63.75 47.5L66.75 49.7501C66.9664 49.9123 67.2296 50 67.5 50H67.6644L64.3311 55H63.75C63.4185 55 63.1005 55.1317 62.8661 55.3661C62.6317 55.6005 62.5 55.9185 62.5 56.25ZM71.25 60H68.75C67.9747 59.9991 67.2187 59.7583 66.5856 59.3107C65.9526 58.8632 65.4736 58.2306 65.2142 57.5H74.7858C74.5265 58.2306 74.0474 58.8632 73.4144 59.3107C72.7813 59.7583 72.0253 59.9991 71.25 60Z" fill="url(#paint0_linear)"/>
<defs>
<linearGradient id="paint0_linear" x1="40" y1="2.5" x2="40" y2="77.5" gradientUnits="userSpaceOnUse">
<stop stop-color="#935735"/>
<stop offset="1" stop-color="#E3A97A"/>
</linearGradient>
</defs>
</svg>
