<svg width="80" height="80" viewBox="0 0 80 80" fill="none" xmlns="http://www.w3.org/2000/svg">
<path d="M30 11.25H65V13.75H30V11.25Z" fill="url(#paint0_linear)"/>
<path d="M30 16.25H65V18.75H30V16.25Z" fill="url(#paint1_linear)"/>
<path d="M30 21.25H65V23.75H30V21.25Z" fill="url(#paint2_linear)"/>
<path d="M30 26.25H65V28.75H30V26.25Z" fill="url(#paint3_linear)"/>
<path d="M73.75 41.25H70V7.5C70 6.81 69.44 6.25 68.75 6.25H65V2.5C65 1.81 64.44 1.25 63.75 1.25H11.25C10.56 1.25 10 1.81 10 2.5V41.25H6.25C3.4925 41.25 1.25 43.4925 1.25 46.25V78.75H3.75V46.25C3.75 44.8713 4.87125 43.75 6.25 43.75H73.75C75.1288 43.75 76.25 44.8713 76.25 46.25V78.75H78.75V46.25C78.75 43.4925 76.5075 41.25 73.75 41.25ZM67.5 41.25H17.5V18.75H26.25C26.94 18.75 27.5 18.19 27.5 17.5V8.75H67.5V41.25ZM19.2675 16.25L25 10.5175V16.25H19.2675ZM12.5 3.75H62.5V6.25H26.25C25.905 6.25 25.5925 6.39 25.3662 6.61625L15.3675 16.615C15.14 16.8425 15 17.155 15 17.5V41.25H12.5V3.75Z" fill="url(#paint4_linear)"/>
<path d="M62.5 36.25H65V38.75H62.5V36.25Z" fill="url(#paint5_linear)"/>
<path d="M57.5 36.25H60V38.75H57.5V36.25Z" fill="url(#paint6_linear)"/>
<path d="M52.5 36.25H55V38.75H52.5V36.25Z" fill="url(#paint7_linear)"/>
<path d="M47.5 36.25H50V38.75H47.5V36.25Z" fill="url(#paint8_linear)"/>
<path d="M47.5 31.25H65V33.75H47.5V31.25Z" fill="url(#paint9_linear)"/>
<path d="M6.25 48.75H41.25V51.25H6.25V48.75Z" fill="url(#paint10_linear)"/>
<path d="M6.25 53.75H23.75V56.25H6.25V53.75Z" fill="url(#paint11_linear)"/>
<path d="M56.25 46.25C47.29 46.25 40 53.54 40 62.5C40 71.46 47.29 78.75 56.25 78.75C65.21 78.75 72.5 71.46 72.5 62.5C72.5 53.54 65.21 46.25 56.25 46.25ZM56.25 76.25C48.6687 76.25 42.5 70.0812 42.5 62.5C42.5 54.9187 48.6687 48.75 56.25 48.75C63.8312 48.75 70 54.9187 70 62.5C70 70.0812 63.8312 76.25 56.25 76.25Z" fill="url(#paint12_linear)"/>
<path d="M63.75 61.25H62.5V57.5C62.5 54.0538 59.6962 51.25 56.25 51.25C52.8038 51.25 50 54.0538 50 57.5V61.25H48.75C48.06 61.25 47.5 61.81 47.5 62.5V70C47.5 70.69 48.06 71.25 48.75 71.25H63.75C64.44 71.25 65 70.69 65 70V62.5C65 61.81 64.44 61.25 63.75 61.25ZM52.5 57.5C52.5 55.4325 54.1825 53.75 56.25 53.75C58.3175 53.75 60 55.4325 60 57.5V61.25H52.5V57.5ZM62.5 68.75H50V63.75H62.5V68.75Z" fill="url(#paint13_linear)"/>
<defs>
<linearGradient id="paint0_linear" x1="47.5" y1="11.25" x2="47.5" y2="13.75" gradientUnits="userSpaceOnUse">
<stop stop-color="#935736"/>
<stop offset="1" stop-color="#E1A778"/>
</linearGradient>
<linearGradient id="paint1_linear" x1="47.5" y1="16.25" x2="47.5" y2="18.75" gradientUnits="userSpaceOnUse">
<stop stop-color="#935736"/>
<stop offset="1" stop-color="#E1A778"/>
</linearGradient>
<linearGradient id="paint2_linear" x1="47.5" y1="21.25" x2="47.5" y2="23.75" gradientUnits="userSpaceOnUse">
<stop stop-color="#935736"/>
<stop offset="1" stop-color="#E1A778"/>
</linearGradient>
<linearGradient id="paint3_linear" x1="47.5" y1="26.25" x2="47.5" y2="28.75" gradientUnits="userSpaceOnUse">
<stop stop-color="#935736"/>
<stop offset="1" stop-color="#E1A778"/>
</linearGradient>
<linearGradient id="paint4_linear" x1="40" y1="1.25" x2="40" y2="78.75" gradientUnits="userSpaceOnUse">
<stop stop-color="#935736"/>
<stop offset="1" stop-color="#E1A778"/>
</linearGradient>
<linearGradient id="paint5_linear" x1="63.75" y1="36.25" x2="63.75" y2="38.75" gradientUnits="userSpaceOnUse">
<stop stop-color="#935736"/>
<stop offset="1" stop-color="#E1A778"/>
</linearGradient>
<linearGradient id="paint6_linear" x1="58.75" y1="36.25" x2="58.75" y2="38.75" gradientUnits="userSpaceOnUse">
<stop stop-color="#935736"/>
<stop offset="1" stop-color="#E1A778"/>
</linearGradient>
<linearGradient id="paint7_linear" x1="53.75" y1="36.25" x2="53.75" y2="38.75" gradientUnits="userSpaceOnUse">
<stop stop-color="#935736"/>
<stop offset="1" stop-color="#E1A778"/>
</linearGradient>
<linearGradient id="paint8_linear" x1="48.75" y1="36.25" x2="48.75" y2="38.75" gradientUnits="userSpaceOnUse">
<stop stop-color="#935736"/>
<stop offset="1" stop-color="#E1A778"/>
</linearGradient>
<linearGradient id="paint9_linear" x1="56.25" y1="31.25" x2="56.25" y2="33.75" gradientUnits="userSpaceOnUse">
<stop stop-color="#935736"/>
<stop offset="1" stop-color="#E1A778"/>
</linearGradient>
<linearGradient id="paint10_linear" x1="23.75" y1="48.75" x2="23.75" y2="51.25" gradientUnits="userSpaceOnUse">
<stop stop-color="#935736"/>
<stop offset="1" stop-color="#E1A778"/>
</linearGradient>
<linearGradient id="paint11_linear" x1="15" y1="53.75" x2="15" y2="56.25" gradientUnits="userSpaceOnUse">
<stop stop-color="#935736"/>
<stop offset="1" stop-color="#E1A778"/>
</linearGradient>
<linearGradient id="paint12_linear" x1="56.25" y1="46.25" x2="56.25" y2="78.75" gradientUnits="userSpaceOnUse">
<stop stop-color="#935736"/>
<stop offset="1" stop-color="#E1A778"/>
</linearGradient>
<linearGradient id="paint13_linear" x1="56.25" y1="51.25" x2="56.25" y2="71.25" gradientUnits="userSpaceOnUse">
<stop stop-color="#935736"/>
<stop offset="1" stop-color="#E1A778"/>
</linearGradient>
</defs>
</svg>
