<svg width="80" height="80" viewBox="0 0 80 80" fill="none" xmlns="http://www.w3.org/2000/svg">
<g clip-path="url(#clip0)">
<path d="M58.7481 29.5285C58.5907 29.5285 58.4332 29.4998 58.2842 29.4394L52.2581 27.0284L33.7486 27.0431H33.7474C33.4159 27.0431 33.0973 26.9118 32.8635 26.6781C32.6285 26.4431 32.4973 26.1257 32.4973 25.793V3.27891C32.4973 2.58858 33.0558 2.02887 33.7474 2.02887H62.4982C63.1892 2.02887 63.7483 2.58858 63.7483 3.27891V25.7784C63.7483 26.4681 63.1892 27.0284 62.4982 27.0284H59.9994L59.9982 28.2797C59.9982 28.6947 59.7919 29.0823 59.4494 29.3137C59.2395 29.4559 58.9941 29.5285 58.7481 29.5285ZM52.4979 24.5284C52.6566 24.5284 52.8141 24.5583 52.9618 24.6169L57.4993 26.4321L57.5005 25.7772C57.5017 25.0868 58.0602 24.5284 58.7506 24.5284H61.2482V4.52895H34.9974V24.5418L52.4979 24.5284Z" fill="url(#paint0_linear)"/>
<path d="M18.7443 28.2772C18.4977 28.2772 18.2529 28.2046 18.043 28.0624C17.7006 27.8298 17.4943 27.4422 17.4943 27.0272V25.7772H14.9942C14.3026 25.7772 13.7441 25.2168 13.7441 24.5271V5.78141C13.7441 5.09169 14.3026 4.53137 14.9942 4.53137H33.7368C34.4284 4.53137 34.9869 5.09169 34.9869 5.78141C34.9869 6.47174 34.4284 7.03145 33.7368 7.03145H16.2442V23.2771H18.7443C19.4352 23.2771 19.9943 23.8368 19.9943 24.5271V25.1808L24.5306 23.3656C24.6795 23.307 24.837 23.2258 24.9969 23.2771L33.7399 23.2917C34.4296 23.2929 34.9887 23.8533 34.9869 24.543C34.9856 25.2333 34.4272 25.7918 33.7368 25.7918C33.7356 25.7918 33.7356 25.7918 33.7344 25.7918L25.2344 25.7772L19.2094 28.1869C19.0592 28.2485 18.9018 28.2772 18.7443 28.2772Z" fill="url(#paint1_linear)"/>
<path d="M47.4978 18.2782C46.8063 18.2782 46.2478 17.7179 46.2478 17.0281V8.27909C46.2478 7.58876 46.8063 7.02905 47.4978 7.02905C48.1888 7.02905 48.7479 7.58876 48.7479 8.27909V17.0281C48.7479 17.7179 48.1888 18.2782 47.4978 18.2782Z" fill="url(#paint2_linear)"/>
<path d="M47.5352 22.0282C46.8443 22.0282 46.2791 21.4679 46.2791 20.7782C46.2791 20.0878 46.8314 19.5281 47.5218 19.5281H47.5352C48.2255 19.5281 48.7852 20.0878 48.7852 20.7782C48.7852 21.4679 48.2255 22.0282 47.5352 22.0282Z" fill="url(#paint3_linear)"/>
<path d="M3.74882 50.7194C3.05727 50.7194 2.49878 50.1603 2.49878 49.4693V44.0663C2.49878 43.3754 3.05727 42.8163 3.74882 42.8163C4.43976 42.8163 4.99886 43.3754 4.99886 44.0663V49.4693C4.99886 50.1603 4.43976 50.7194 3.74882 50.7194Z" fill="url(#paint4_linear)"/>
<path d="M26.2498 50.7706C25.5582 50.7706 24.9998 50.2115 24.9998 49.5205V43.8899C24.9998 43.1989 25.5582 42.6398 26.2498 42.6398C26.9407 42.6398 27.4998 43.1989 27.4998 43.8899V49.5205C27.4998 50.2115 26.9407 50.7706 26.2498 50.7706Z" fill="url(#paint5_linear)"/>
<path d="M26.2496 45.1399C25.558 45.1399 24.9995 44.5814 24.9995 43.8899C24.9995 38.0321 20.2331 33.267 14.3717 33.267C8.51524 33.267 3.74886 38.0321 3.74886 43.8899C3.74886 44.5814 3.18976 45.1399 2.49882 45.1399C1.80727 45.1399 1.24878 44.5814 1.24878 43.8899C1.24878 36.6539 7.13519 30.7669 14.3717 30.7669C21.6107 30.7669 27.4996 36.6552 27.4996 43.8899C27.4996 44.5814 26.9405 45.1399 26.2496 45.1399Z" fill="url(#paint6_linear)"/>
<path d="M26.2509 47.0174C25.8749 47.0174 25.5032 46.849 25.2572 46.5279C22.1846 42.5141 20.8021 42.9249 17.1021 44.0254C13.9208 44.9739 9.56643 46.2728 2.30363 45.1241C1.62246 45.0166 1.15613 44.3764 1.26539 43.694C1.37281 43.0128 2.01614 42.5452 2.69488 42.6551C9.3943 43.7098 13.4356 42.5074 16.3879 41.6291C20.298 40.4675 23.1197 39.624 27.2434 45.0063C27.6633 45.5538 27.5595 46.3387 27.0108 46.7592C26.7832 46.9338 26.5158 47.0174 26.2509 47.0174Z" fill="url(#paint7_linear)"/>
<path d="M20.0256 43.3027C19.7833 43.3027 19.5367 43.2313 19.3218 43.0836C18.7517 42.6936 18.6052 41.9166 18.9953 41.3477L22.7191 35.8989C23.1079 35.3276 23.8868 35.1823 24.4569 35.5711C25.027 35.9612 25.1734 36.7388 24.7834 37.3089L21.0595 42.7589C20.8154 43.1111 20.4241 43.3027 20.0256 43.3027Z" fill="url(#paint8_linear)"/>
<path d="M1.25004 72.0213C0.558489 72.0213 0 71.4622 0 70.7712C0 66.6347 3.36375 63.271 7.50024 63.271C8.19178 63.271 8.75027 63.8295 8.75027 64.521C8.75027 65.212 8.19178 65.7711 7.50024 65.7711C4.74258 65.7711 2.50008 68.0136 2.50008 70.7712C2.50008 71.4622 1.94159 72.0213 1.25004 72.0213Z" fill="url(#paint9_linear)"/>
<path d="M9.99914 65.7711H7.50028C6.80873 65.7711 6.25024 65.212 6.25024 64.521C6.25024 63.8295 6.80873 63.271 7.50028 63.271H9.99914C10.6901 63.271 11.2492 63.8295 11.2492 64.521C11.2492 65.212 10.6901 65.7711 9.99914 65.7711Z" fill="url(#paint10_linear)"/>
<path d="M1.25004 77.0214C0.558489 77.0214 0 76.4623 0 75.7714V70.7712C0 70.0797 0.558489 69.5212 1.25004 69.5212C1.94159 69.5212 2.50008 70.0797 2.50008 70.7712V75.7714C2.50008 76.4623 1.94159 77.0214 1.25004 77.0214Z" fill="url(#paint11_linear)"/>
<path d="M28.7483 72.0213C28.0567 72.0213 27.4982 71.4622 27.4982 70.7712C27.4982 68.0136 25.2557 65.7711 22.4981 65.7711C21.8065 65.7711 21.248 65.212 21.248 64.521C21.248 63.8295 21.8065 63.271 22.4981 63.271C26.6346 63.271 29.9983 66.6347 29.9983 70.7712C29.9983 71.4622 29.4392 72.0213 28.7483 72.0213Z" fill="url(#paint12_linear)"/>
<path d="M22.4984 65.7711H19.9996C19.308 65.7711 18.7495 65.212 18.7495 64.521C18.7495 63.8295 19.308 63.271 19.9996 63.271H22.4984C23.1894 63.271 23.7485 63.8295 23.7485 64.521C23.7485 65.212 23.1894 65.7711 22.4984 65.7711Z" fill="url(#paint13_linear)"/>
<path d="M28.7483 77.0214C28.0568 77.0214 27.4983 76.4623 27.4983 75.7714V70.7712C27.4983 70.0797 28.0568 69.5212 28.7483 69.5212C29.4393 69.5212 29.9984 70.0797 29.9984 70.7712V75.7714C29.9984 76.4623 29.4393 77.0214 28.7483 77.0214Z" fill="url(#paint14_linear)"/>
<path d="M9.99906 65.7711C9.30751 65.7711 8.74902 65.212 8.74902 64.5211V59.6009C8.74902 58.9093 9.30751 58.3508 9.99906 58.3508C10.69 58.3508 11.2491 58.9093 11.2491 59.6009V64.5211C11.2491 65.212 10.69 65.7711 9.99906 65.7711Z" fill="url(#paint15_linear)"/>
<path d="M19.9996 65.7711C19.308 65.7711 18.7495 65.212 18.7495 64.5211V59.6009C18.7495 58.9093 19.308 58.3508 19.9996 58.3508C20.6905 58.3508 21.2496 58.9093 21.2496 59.6009V64.5211C21.2496 65.212 20.6905 65.7711 19.9996 65.7711Z" fill="url(#paint16_linear)"/>
<path d="M14.9967 62.0209C8.10503 62.0209 2.49878 56.4141 2.49878 49.523C2.49878 48.8314 3.05727 48.2729 3.74882 48.2729C4.43976 48.2729 4.99886 48.8314 4.99886 49.523C4.99886 55.0352 9.48386 59.5209 14.9967 59.5209C20.512 59.5209 24.9995 55.0352 24.9995 49.523C24.9995 48.8314 25.558 48.2729 26.2495 48.2729C26.9405 48.2729 27.4996 48.8314 27.4996 49.523C27.4996 56.4141 21.8909 62.0209 14.9967 62.0209Z" fill="url(#paint17_linear)"/>
<path d="M12.498 67.0211C12.3107 67.0211 12.119 66.9784 11.9402 66.8899L9.44008 65.6399C8.823 65.331 8.57275 64.5796 8.88159 63.9619C9.19044 63.3442 9.94181 63.0958 10.5589 63.4034L13.059 64.6535C13.6767 64.9623 13.9269 65.7131 13.6181 66.3308C13.3977 66.7684 12.957 67.0211 12.498 67.0211Z" fill="url(#paint18_linear)"/>
<path d="M12.5004 67.0211C12.0414 67.0211 11.6001 66.7684 11.3804 66.3296C11.0715 65.7119 11.3218 64.9605 11.9389 64.6523L14.4389 63.4022C15.0566 63.0946 15.8068 63.343 16.1169 63.9607C16.4257 64.5784 16.1755 65.3298 15.5578 65.638L13.0577 66.8881C12.8794 66.9784 12.6878 67.0211 12.5004 67.0211Z" fill="url(#paint19_linear)"/>
<path d="M17.5004 67.0211C17.0414 67.0211 16.6001 66.7684 16.3804 66.3296C16.0715 65.7119 16.3218 64.9605 16.9389 64.6523L19.4389 63.4022C20.0566 63.0946 20.808 63.343 21.1168 63.9607C21.4257 64.5784 21.1754 65.3298 20.5577 65.638L18.0577 66.8881C17.8794 66.9784 17.6878 67.0211 17.5004 67.0211Z" fill="url(#paint20_linear)"/>
<path d="M17.498 67.0211C17.3107 67.0211 17.119 66.9784 16.9402 66.8899L14.4401 65.6399C13.823 65.331 13.5727 64.5796 13.8816 63.9619C14.1904 63.3442 14.9418 63.0958 15.5589 63.4034L18.059 64.6535C18.6767 64.9623 18.9269 65.7131 18.6181 66.3308C18.3977 66.7684 17.957 67.0211 17.498 67.0211Z" fill="url(#paint21_linear)"/>
<path d="M2.50496 78.2763C1.12491 78.2763 0 77.1527 0 75.7714C0 75.0798 0.558489 74.5214 1.25004 74.5214C1.94159 74.5214 2.50008 75.0798 2.50008 75.7714V75.7738C3.19163 75.7738 3.75256 76.3348 3.75256 77.0251C3.75256 77.716 3.19651 78.2763 2.50496 78.2763Z" fill="url(#paint22_linear)"/>
<path d="M27.4934 78.2763C26.8019 78.2763 26.2434 77.7172 26.2434 77.0263C26.2434 76.3348 26.8019 75.7763 27.4934 75.7763C27.4934 75.0847 28.0544 74.5238 28.7459 74.5238C29.4369 74.5238 29.9984 75.0798 29.9984 75.7714C29.9984 77.1527 28.8747 78.2763 27.4934 78.2763Z" fill="url(#paint23_linear)"/>
<path d="M27.4935 78.2763H2.50492C1.81398 78.2763 1.25488 77.7172 1.25488 77.0263C1.25488 76.3347 1.81398 75.7762 2.50492 75.7762H27.4935C28.1844 75.7762 28.7435 76.3347 28.7435 77.0263C28.7435 77.7172 28.1844 78.2763 27.4935 78.2763Z" fill="url(#paint24_linear)"/>
<path d="M51.2515 72.0213C50.56 72.0213 50.0015 71.4622 50.0015 70.7712C50.0015 66.6347 53.3652 63.271 57.5017 63.271C58.1933 63.271 58.7517 63.8295 58.7517 64.521C58.7517 65.212 58.1933 65.7711 57.5017 65.7711C54.744 65.7711 52.5015 68.0136 52.5015 70.7712C52.5015 71.4622 51.9431 72.0213 51.2515 72.0213Z" fill="url(#paint25_linear)"/>
<path d="M60.0006 65.7711H57.5017C56.8102 65.7711 56.2517 65.212 56.2517 64.521C56.2517 63.8295 56.8102 63.271 57.5017 63.271H60.0006C60.6915 63.271 61.2506 63.8295 61.2506 64.521C61.2506 65.212 60.6915 65.7711 60.0006 65.7711Z" fill="url(#paint26_linear)"/>
<path d="M51.2515 77.0214C50.56 77.0214 50.0015 76.4623 50.0015 75.7714V70.7712C50.0015 70.0797 50.56 69.5212 51.2515 69.5212C51.9431 69.5212 52.5015 70.0797 52.5015 70.7712V75.7714C52.5015 76.4623 51.9431 77.0214 51.2515 77.0214Z" fill="url(#paint27_linear)"/>
<path d="M78.75 72.0213C78.0584 72.0213 77.4999 71.4622 77.4999 70.7712C77.4999 68.0136 75.2574 65.7711 72.4998 65.7711C71.8082 65.7711 71.2498 65.212 71.2498 64.521C71.2498 63.8295 71.8082 63.271 72.4998 63.271C76.6363 63.271 80 66.6347 80 70.7712C80 71.4622 79.4409 72.0213 78.75 72.0213Z" fill="url(#paint28_linear)"/>
<path d="M72.4999 65.7711H70.001C69.3095 65.7711 68.751 65.212 68.751 64.521C68.751 63.8295 69.3095 63.271 70.001 63.271H72.4999C73.1908 63.271 73.7499 63.8295 73.7499 64.521C73.7499 65.212 73.1908 65.7711 72.4999 65.7711Z" fill="url(#paint29_linear)"/>
<path d="M78.75 77.0214C78.0585 77.0214 77.5 76.4623 77.5 75.7714V70.7712C77.5 70.0797 78.0585 69.5212 78.75 69.5212C79.441 69.5212 80.0001 70.0797 80.0001 70.7712V75.7714C80.0001 76.4623 79.441 77.0214 78.75 77.0214Z" fill="url(#paint30_linear)"/>
<path d="M60.0008 65.7711C59.3092 65.7711 58.7507 65.212 58.7507 64.5211V59.6009C58.7507 58.9093 59.3092 58.3508 60.0008 58.3508C60.6917 58.3508 61.2508 58.9093 61.2508 59.6009V64.5211C61.2508 65.212 60.6917 65.7711 60.0008 65.7711Z" fill="url(#paint31_linear)"/>
<path d="M70.001 65.7711C69.3095 65.7711 68.751 65.212 68.751 64.5211V59.6009C68.751 58.9093 69.3095 58.3508 70.001 58.3508C70.6919 58.3508 71.251 58.9093 71.251 59.6009V64.5211C71.251 65.212 70.6919 65.7711 70.001 65.7711Z" fill="url(#paint32_linear)"/>
<path d="M65.0009 62.0209C58.108 62.0209 52.5005 56.4141 52.5005 49.523C52.5005 48.8314 53.059 48.2729 53.7505 48.2729C54.4415 48.2729 55.0006 48.8314 55.0006 49.523C55.0006 55.0352 59.4868 59.5209 65.0009 59.5209C70.515 59.5209 75.0012 55.0352 75.0012 49.523C75.0012 48.8314 75.5597 48.2729 76.2512 48.2729C76.9422 48.2729 77.5013 48.8314 77.5013 49.523C77.5013 56.4141 71.8938 62.0209 65.0009 62.0209Z" fill="url(#paint33_linear)"/>
<path d="M53.7505 50.8341C53.059 50.8341 52.5005 50.2756 52.5005 49.584V42.0173C52.5005 41.3275 53.059 40.7672 53.7505 40.7672C54.4415 40.7672 55.0006 41.3275 55.0006 42.0173V49.584C55.0006 50.2756 54.4415 50.8341 53.7505 50.8341Z" fill="url(#paint34_linear)"/>
<path d="M76.2513 50.773C75.5597 50.773 75.0012 50.2139 75.0012 49.523V42.0173C75.0012 41.3275 75.5597 40.7672 76.2513 40.7672C76.9422 40.7672 77.5013 41.3275 77.5013 42.0173V49.523C77.5013 50.2139 76.9422 50.773 76.2513 50.773Z" fill="url(#paint35_linear)"/>
<path d="M76.2512 43.2649C75.5596 43.2649 75.0011 42.7064 75.0011 42.0148C75.0011 39.9487 73.3183 38.2672 71.251 38.2672C70.5595 38.2672 70.001 37.7075 70.001 37.0171C70.001 36.3274 70.5595 35.7671 71.251 35.7671C74.6972 35.7671 77.5012 38.5699 77.5012 42.0148C77.5012 42.7064 76.9421 43.2649 76.2512 43.2649Z" fill="url(#paint36_linear)"/>
<path d="M71.251 38.2671C70.5595 38.2671 70.001 37.7074 70.001 37.0171V32.0169C70.001 31.3272 70.5595 30.7669 71.251 30.7669C71.9419 30.7669 72.501 31.3272 72.501 32.0169V37.0171C72.501 37.7074 71.9419 38.2671 71.251 38.2671Z" fill="url(#paint37_linear)"/>
<path d="M71.251 33.267H63.7508C63.0592 33.267 62.5007 32.7073 62.5007 32.0169C62.5007 31.3272 63.0592 30.7669 63.7508 30.7669H71.251C71.9419 30.7669 72.501 31.3272 72.501 32.0169C72.501 32.7073 71.9419 33.267 71.251 33.267Z" fill="url(#paint38_linear)"/>
<path d="M53.7505 43.2673C53.059 43.2673 52.5005 42.7088 52.5005 42.0173C52.5005 35.8147 57.547 30.7669 63.7508 30.7669C64.4418 30.7669 65.0009 31.3272 65.0009 32.0169C65.0009 32.7073 64.4418 33.267 63.7508 33.267C58.9271 33.267 55.0006 37.1923 55.0006 42.0173C55.0006 42.7088 54.4415 43.2673 53.7505 43.2673Z" fill="url(#paint39_linear)"/>
<path d="M76.2499 47.0504C76.01 47.0504 75.7659 46.9802 75.5511 46.8367L71.8009 44.3049C71.2284 43.9173 71.0783 43.1416 71.4634 42.569C71.851 41.9965 72.6262 41.8476 73.1999 42.2315L76.95 44.7627C77.5225 45.1503 77.6727 45.9267 77.2875 46.4992C77.0458 46.8563 76.6509 47.0504 76.2499 47.0504Z" fill="url(#paint40_linear)"/>
<path d="M65.6258 45.7674C61.1109 45.7674 57.2668 44.5076 57.1069 44.4538C56.4532 44.2353 56.0979 43.5291 56.314 42.8736C56.5319 42.2199 57.2381 41.864 57.8943 42.0801C57.9303 42.0923 61.5296 43.2661 65.627 43.2661C69.6 43.2661 71.9273 42.1564 71.9511 42.1448C72.567 41.8451 73.3183 42.099 73.6223 42.7161C73.9263 43.3338 73.676 44.0791 73.0608 44.3861C72.9448 44.4441 70.2335 45.7674 65.6258 45.7674Z" fill="url(#paint41_linear)"/>
<path d="M53.7516 47.0504C53.3506 47.0504 52.955 46.8575 52.714 46.5004C52.3276 45.9279 52.479 45.1515 53.0515 44.7639L56.8016 42.2327C57.3741 41.8476 58.1517 41.9977 58.5381 42.5702C58.9245 43.1428 58.7731 43.9185 58.2006 44.3061L54.4505 46.8379C54.2356 46.9802 53.9915 47.0504 53.7516 47.0504Z" fill="url(#paint42_linear)"/>
<path d="M62.4995 67.0211C62.3121 67.0211 62.1205 66.9784 61.9416 66.8899L59.4415 65.6399C58.8245 65.331 58.5742 64.5796 58.8831 63.9619C59.1931 63.3442 59.9433 63.0958 60.5604 63.4034L63.0604 64.6535C63.6781 64.9623 63.9284 65.7131 63.6195 66.3308C63.3992 66.7684 62.9585 67.0211 62.4995 67.0211Z" fill="url(#paint43_linear)"/>
<path d="M62.5021 67.0211C62.0431 67.0211 61.6018 66.7684 61.3821 66.3296C61.0732 65.7119 61.3235 64.9605 61.9406 64.6523L64.4406 63.4022C65.0583 63.0946 65.8085 63.343 66.1186 63.9607C66.4274 64.5784 66.1772 65.3298 65.5595 65.638L63.0594 66.8881C62.8812 66.9784 62.6895 67.0211 62.5021 67.0211Z" fill="url(#paint44_linear)"/>
<path d="M67.5021 67.0211C67.0431 67.0211 66.6018 66.7684 66.3821 66.3296C66.0732 65.7119 66.3235 64.9605 66.9406 64.6523L69.4406 63.4022C70.0571 63.0946 70.8085 63.343 71.1185 63.9607C71.4274 64.5784 71.1771 65.3298 70.5594 65.638L68.0594 66.8881C67.8811 66.9784 67.6895 67.0211 67.5021 67.0211Z" fill="url(#paint45_linear)"/>
<path d="M67.4998 67.0211C67.3124 67.0211 67.1207 66.9784 66.9419 66.8899L64.4418 65.6399C63.8247 65.331 63.5745 64.5796 63.8833 63.9619C64.1934 63.3442 64.9435 63.0958 65.5606 63.4034L68.0607 64.6535C68.6784 64.9623 68.9286 65.7131 68.6198 66.3308C68.3994 66.7684 67.9588 67.0211 67.4998 67.0211Z" fill="url(#paint46_linear)"/>
<path d="M52.5064 78.2763C51.1264 78.2763 50.0015 77.1527 50.0015 75.7714C50.0015 75.0798 50.56 74.5214 51.2515 74.5214C51.9431 74.5214 52.5016 75.0798 52.5016 75.7714V75.7738C53.1931 75.7738 53.754 76.3348 53.754 77.0251C53.754 77.716 53.198 78.2763 52.5064 78.2763Z" fill="url(#paint47_linear)"/>
<path d="M77.4952 78.2763C76.8036 78.2763 76.2451 77.7172 76.2451 77.0263C76.2451 76.3348 76.8036 75.7763 77.4952 75.7763C77.4952 75.0847 78.0561 74.5238 78.7476 74.5238C79.4386 74.5238 80.0001 75.0798 80.0001 75.7714C80.0001 77.1527 78.8764 78.2763 77.4952 78.2763Z" fill="url(#paint48_linear)"/>
<path d="M77.4949 78.2763H52.5064C51.8154 78.2763 51.2563 77.7172 51.2563 77.0263C51.2563 76.3347 51.8154 75.7762 52.5064 75.7762H77.4949C78.1859 75.7762 78.745 76.3347 78.745 77.0263C78.745 77.7172 78.1859 78.2763 77.4949 78.2763Z" fill="url(#paint49_linear)"/>
<path d="M47.4978 53.2756H32.5071C31.8162 53.2756 31.2571 52.7165 31.2571 52.0256C31.2571 51.334 31.8162 50.7755 32.5071 50.7755H47.4978C48.1888 50.7755 48.7479 51.334 48.7479 52.0256C48.7479 52.7165 48.1888 53.2756 47.4978 53.2756Z" fill="url(#paint50_linear)"/>
<path d="M40.0037 70.7749C39.3128 70.7749 38.7537 70.2158 38.7537 69.5248V49.5267C38.7537 48.8351 39.3128 48.2766 40.0037 48.2766C40.6953 48.2766 41.2537 48.8351 41.2537 49.5267V69.5248C41.2537 70.2158 40.6953 70.7749 40.0037 70.7749Z" fill="url(#paint51_linear)"/>
<path d="M46.2502 70.7748H33.7571C33.0662 70.7748 32.5071 70.2157 32.5071 69.5248C32.5071 68.8333 33.0662 68.2748 33.7571 68.2748H46.2502C46.9411 68.2748 47.5002 68.8333 47.5002 69.5248C47.5002 70.2157 46.9411 70.7748 46.2502 70.7748Z" fill="url(#paint52_linear)"/>
<path d="M47.4991 64.5247C45.4318 64.5247 43.749 62.8419 43.749 60.7746C43.749 60.083 44.3075 59.5245 44.9991 59.5245C45.69 59.5245 46.2491 60.083 46.2491 60.7746C46.2491 61.4643 46.8088 62.0246 47.4991 62.0246C48.1889 62.0246 48.7492 61.4643 48.7492 60.7746C48.7492 60.083 49.3077 59.5245 49.9992 59.5245C50.6902 59.5245 51.2493 60.083 51.2493 60.7746C51.2493 62.8419 49.5665 64.5247 47.4991 64.5247Z" fill="url(#paint53_linear)"/>
<path d="M44.9991 60.7733C44.8691 60.7733 44.7354 60.752 44.6042 60.708C43.9504 60.4907 43.5952 59.7833 43.8137 59.1265L46.3126 51.6294C46.5317 50.975 47.233 50.6204 47.894 50.8389C48.5477 51.0568 48.903 51.7643 48.6839 52.4204L46.185 59.9182C46.0104 60.4419 45.5228 60.7733 44.9991 60.7733Z" fill="url(#paint54_linear)"/>
<path d="M49.9968 60.7733C49.4731 60.7733 48.9854 60.4419 48.8115 59.9182L46.3126 52.4204C46.0941 51.7655 46.4481 51.0568 47.1031 50.8389C47.7616 50.6204 48.4654 50.9738 48.6839 51.6294L51.1828 59.1266C51.4019 59.7821 51.0479 60.4907 50.393 60.708C50.2605 60.752 50.1281 60.7733 49.9968 60.7733Z" fill="url(#paint55_linear)"/>
<path d="M32.5072 64.5247C30.4399 64.5247 28.7571 62.8419 28.7571 60.7746C28.7571 60.083 29.3162 59.5245 30.0071 59.5245C30.6987 59.5245 31.2572 60.083 31.2572 60.7746C31.2572 61.4643 31.8175 62.0246 32.5072 62.0246C33.1975 62.0246 33.7572 61.4643 33.7572 60.7746C33.7572 60.083 34.3163 59.5245 35.0073 59.5245C35.6988 59.5245 36.2573 60.083 36.2573 60.7746C36.2573 62.8419 34.5751 64.5247 32.5072 64.5247Z" fill="url(#paint56_linear)"/>
<path d="M30.0071 60.7733C29.877 60.7733 29.7434 60.752 29.6121 60.708C28.9584 60.4907 28.6032 59.7833 28.8223 59.1265L31.3212 51.6294C31.5397 50.975 32.241 50.6204 32.902 50.8389C33.5564 51.0568 33.911 51.7643 33.6925 52.4204L31.1936 59.9182C31.0172 60.4419 30.5308 60.7733 30.0071 60.7733Z" fill="url(#paint57_linear)"/>
<path d="M35.0048 60.7733C34.4811 60.7733 33.9934 60.4419 33.8201 59.9182L31.3212 52.4204C31.1021 51.7655 31.4561 51.0568 32.111 50.8389C32.7696 50.6204 33.4734 50.9738 33.6925 51.6294L36.1914 59.1266C36.4099 59.7821 36.0565 60.4907 35.4009 60.708C35.2685 60.752 35.1348 60.7733 35.0048 60.7733Z" fill="url(#paint58_linear)"/>
<path d="M35.0048 60.7733H30.0071C29.3162 60.7733 28.7571 60.2142 28.7571 59.5233C28.7571 58.8317 29.3162 58.2733 30.0071 58.2733H35.0048C35.6964 58.2733 36.2549 58.8317 36.2549 59.5233C36.2549 60.2142 35.6964 60.7733 35.0048 60.7733Z" fill="url(#paint59_linear)"/>
<path d="M49.9968 60.7733H44.9991C44.3075 60.7733 43.749 60.2142 43.749 59.5233C43.749 58.8317 44.3075 58.2733 44.9991 58.2733H49.9968C50.6877 58.2733 51.2468 58.8317 51.2468 59.5233C51.2468 60.2142 50.6877 60.7733 49.9968 60.7733Z" fill="url(#paint60_linear)"/>
<path d="M35.0074 62.0246C34.3176 62.0246 33.7585 61.4667 33.7573 60.777L33.7549 59.5257C33.7537 58.8342 34.3115 58.2745 35.0025 58.2733H35.0049C35.6953 58.2733 36.2537 58.8305 36.255 59.5208L36.2574 60.7721C36.2586 61.463 35.7014 62.0234 35.0098 62.0246C35.0086 62.0246 35.0086 62.0246 35.0074 62.0246Z" fill="url(#paint61_linear)"/>
<path d="M50.0003 62.0246C49.31 62.0246 48.7515 61.4667 48.7502 60.777L48.7478 59.5257C48.7466 58.8342 49.3039 58.2745 49.9954 58.2733H49.9978C50.6876 58.2733 51.2467 58.8305 51.2479 59.5208L51.2503 60.7721C51.2515 61.463 50.6943 62.0234 50.0027 62.0246C50.0015 62.0246 50.0015 62.0246 50.0003 62.0246Z" fill="url(#paint62_linear)"/>
<path d="M30.0035 62.0246C29.3137 62.0246 28.7546 61.4667 28.7534 60.777L28.751 59.5257C28.7498 58.8342 29.307 58.2745 29.9986 58.2733H30.001C30.6907 58.2733 31.2498 58.8305 31.2511 59.5208L31.2535 60.7721C31.2547 61.463 30.6975 62.0234 30.0059 62.0246C30.0047 62.0246 30.0047 62.0246 30.0035 62.0246Z" fill="url(#paint63_linear)"/>
<path d="M45.0013 62.0246C44.3097 62.0246 43.7512 61.4655 43.7512 60.7745V59.5233C43.7512 58.8317 44.3097 58.2733 45.0013 58.2733C45.6928 58.2733 46.2513 58.8317 46.2513 59.5233V60.7745C46.2513 61.4655 45.6928 62.0246 45.0013 62.0246Z" fill="url(#paint64_linear)"/>
</g>
<defs>
<linearGradient id="paint0_linear" x1="48.1228" y1="2.02887" x2="48.1228" y2="29.5285" gradientUnits="userSpaceOnUse">
<stop stop-color="#995D3B"/>
<stop offset="1" stop-color="#DFA576"/>
</linearGradient>
<linearGradient id="paint1_linear" x1="24.3655" y1="4.53137" x2="24.3655" y2="28.2772" gradientUnits="userSpaceOnUse">
<stop stop-color="#995D3B"/>
<stop offset="1" stop-color="#DFA576"/>
</linearGradient>
<linearGradient id="paint2_linear" x1="47.4978" y1="7.02905" x2="47.4978" y2="18.2782" gradientUnits="userSpaceOnUse">
<stop stop-color="#995D3B"/>
<stop offset="1" stop-color="#DFA576"/>
</linearGradient>
<linearGradient id="paint3_linear" x1="47.5321" y1="19.5281" x2="47.5321" y2="22.0282" gradientUnits="userSpaceOnUse">
<stop stop-color="#995D3B"/>
<stop offset="1" stop-color="#DFA576"/>
</linearGradient>
<linearGradient id="paint4_linear" x1="3.74882" y1="42.8163" x2="3.74882" y2="50.7194" gradientUnits="userSpaceOnUse">
<stop stop-color="#995D3B"/>
<stop offset="1" stop-color="#DFA576"/>
</linearGradient>
<linearGradient id="paint5_linear" x1="26.2498" y1="42.6398" x2="26.2498" y2="50.7706" gradientUnits="userSpaceOnUse">
<stop stop-color="#995D3B"/>
<stop offset="1" stop-color="#DFA576"/>
</linearGradient>
<linearGradient id="paint6_linear" x1="14.3742" y1="30.7669" x2="14.3742" y2="45.1399" gradientUnits="userSpaceOnUse">
<stop stop-color="#995D3B"/>
<stop offset="1" stop-color="#DFA576"/>
</linearGradient>
<linearGradient id="paint7_linear" x1="14.3754" y1="40.7656" x2="14.3754" y2="47.0174" gradientUnits="userSpaceOnUse">
<stop stop-color="#995D3B"/>
<stop offset="1" stop-color="#DFA576"/>
</linearGradient>
<linearGradient id="paint8_linear" x1="21.8893" y1="35.3533" x2="21.8893" y2="43.3027" gradientUnits="userSpaceOnUse">
<stop stop-color="#995D3B"/>
<stop offset="1" stop-color="#DFA576"/>
</linearGradient>
<linearGradient id="paint9_linear" x1="4.37514" y1="63.271" x2="4.37514" y2="72.0213" gradientUnits="userSpaceOnUse">
<stop stop-color="#995D3B"/>
<stop offset="1" stop-color="#DFA576"/>
</linearGradient>
<linearGradient id="paint10_linear" x1="8.74971" y1="63.271" x2="8.74971" y2="65.7711" gradientUnits="userSpaceOnUse">
<stop stop-color="#995D3B"/>
<stop offset="1" stop-color="#DFA576"/>
</linearGradient>
<linearGradient id="paint11_linear" x1="1.25004" y1="69.5212" x2="1.25004" y2="77.0214" gradientUnits="userSpaceOnUse">
<stop stop-color="#995D3B"/>
<stop offset="1" stop-color="#DFA576"/>
</linearGradient>
<linearGradient id="paint12_linear" x1="25.6232" y1="63.271" x2="25.6232" y2="72.0213" gradientUnits="userSpaceOnUse">
<stop stop-color="#995D3B"/>
<stop offset="1" stop-color="#DFA576"/>
</linearGradient>
<linearGradient id="paint13_linear" x1="21.249" y1="63.271" x2="21.249" y2="65.7711" gradientUnits="userSpaceOnUse">
<stop stop-color="#995D3B"/>
<stop offset="1" stop-color="#DFA576"/>
</linearGradient>
<linearGradient id="paint14_linear" x1="28.7483" y1="69.5212" x2="28.7483" y2="77.0214" gradientUnits="userSpaceOnUse">
<stop stop-color="#995D3B"/>
<stop offset="1" stop-color="#DFA576"/>
</linearGradient>
<linearGradient id="paint15_linear" x1="9.99906" y1="58.3508" x2="9.99906" y2="65.7711" gradientUnits="userSpaceOnUse">
<stop stop-color="#995D3B"/>
<stop offset="1" stop-color="#DFA576"/>
</linearGradient>
<linearGradient id="paint16_linear" x1="19.9996" y1="58.3508" x2="19.9996" y2="65.7711" gradientUnits="userSpaceOnUse">
<stop stop-color="#995D3B"/>
<stop offset="1" stop-color="#DFA576"/>
</linearGradient>
<linearGradient id="paint17_linear" x1="14.9992" y1="48.2729" x2="14.9992" y2="62.0209" gradientUnits="userSpaceOnUse">
<stop stop-color="#995D3B"/>
<stop offset="1" stop-color="#DFA576"/>
</linearGradient>
<linearGradient id="paint18_linear" x1="11.2498" y1="63.2715" x2="11.2498" y2="67.0211" gradientUnits="userSpaceOnUse">
<stop stop-color="#995D3B"/>
<stop offset="1" stop-color="#DFA576"/>
</linearGradient>
<linearGradient id="paint19_linear" x1="13.7486" y1="63.2703" x2="13.7486" y2="67.0211" gradientUnits="userSpaceOnUse">
<stop stop-color="#995D3B"/>
<stop offset="1" stop-color="#DFA576"/>
</linearGradient>
<linearGradient id="paint20_linear" x1="18.7486" y1="63.2703" x2="18.7486" y2="67.0211" gradientUnits="userSpaceOnUse">
<stop stop-color="#995D3B"/>
<stop offset="1" stop-color="#DFA576"/>
</linearGradient>
<linearGradient id="paint21_linear" x1="16.2498" y1="63.2715" x2="16.2498" y2="67.0211" gradientUnits="userSpaceOnUse">
<stop stop-color="#995D3B"/>
<stop offset="1" stop-color="#DFA576"/>
</linearGradient>
<linearGradient id="paint22_linear" x1="1.87628" y1="74.5214" x2="1.87628" y2="78.2763" gradientUnits="userSpaceOnUse">
<stop stop-color="#995D3B"/>
<stop offset="1" stop-color="#DFA576"/>
</linearGradient>
<linearGradient id="paint23_linear" x1="28.1209" y1="74.5238" x2="28.1209" y2="78.2763" gradientUnits="userSpaceOnUse">
<stop stop-color="#995D3B"/>
<stop offset="1" stop-color="#DFA576"/>
</linearGradient>
<linearGradient id="paint24_linear" x1="14.9992" y1="75.7762" x2="14.9992" y2="78.2763" gradientUnits="userSpaceOnUse">
<stop stop-color="#995D3B"/>
<stop offset="1" stop-color="#DFA576"/>
</linearGradient>
<linearGradient id="paint25_linear" x1="54.3766" y1="63.271" x2="54.3766" y2="72.0213" gradientUnits="userSpaceOnUse">
<stop stop-color="#995D3B"/>
<stop offset="1" stop-color="#DFA576"/>
</linearGradient>
<linearGradient id="paint26_linear" x1="58.7512" y1="63.271" x2="58.7512" y2="65.7711" gradientUnits="userSpaceOnUse">
<stop stop-color="#995D3B"/>
<stop offset="1" stop-color="#DFA576"/>
</linearGradient>
<linearGradient id="paint27_linear" x1="51.2515" y1="69.5212" x2="51.2515" y2="77.0214" gradientUnits="userSpaceOnUse">
<stop stop-color="#995D3B"/>
<stop offset="1" stop-color="#DFA576"/>
</linearGradient>
<linearGradient id="paint28_linear" x1="75.6249" y1="63.271" x2="75.6249" y2="72.0213" gradientUnits="userSpaceOnUse">
<stop stop-color="#995D3B"/>
<stop offset="1" stop-color="#DFA576"/>
</linearGradient>
<linearGradient id="paint29_linear" x1="71.2504" y1="63.271" x2="71.2504" y2="65.7711" gradientUnits="userSpaceOnUse">
<stop stop-color="#995D3B"/>
<stop offset="1" stop-color="#DFA576"/>
</linearGradient>
<linearGradient id="paint30_linear" x1="78.75" y1="69.5212" x2="78.75" y2="77.0214" gradientUnits="userSpaceOnUse">
<stop stop-color="#995D3B"/>
<stop offset="1" stop-color="#DFA576"/>
</linearGradient>
<linearGradient id="paint31_linear" x1="60.0008" y1="58.3508" x2="60.0008" y2="65.7711" gradientUnits="userSpaceOnUse">
<stop stop-color="#995D3B"/>
<stop offset="1" stop-color="#DFA576"/>
</linearGradient>
<linearGradient id="paint32_linear" x1="70.001" y1="58.3508" x2="70.001" y2="65.7711" gradientUnits="userSpaceOnUse">
<stop stop-color="#995D3B"/>
<stop offset="1" stop-color="#DFA576"/>
</linearGradient>
<linearGradient id="paint33_linear" x1="65.0009" y1="48.2729" x2="65.0009" y2="62.0209" gradientUnits="userSpaceOnUse">
<stop stop-color="#995D3B"/>
<stop offset="1" stop-color="#DFA576"/>
</linearGradient>
<linearGradient id="paint34_linear" x1="53.7505" y1="40.7672" x2="53.7505" y2="50.8341" gradientUnits="userSpaceOnUse">
<stop stop-color="#995D3B"/>
<stop offset="1" stop-color="#DFA576"/>
</linearGradient>
<linearGradient id="paint35_linear" x1="76.2513" y1="40.7672" x2="76.2513" y2="50.773" gradientUnits="userSpaceOnUse">
<stop stop-color="#995D3B"/>
<stop offset="1" stop-color="#DFA576"/>
</linearGradient>
<linearGradient id="paint36_linear" x1="73.7511" y1="35.7671" x2="73.7511" y2="43.2649" gradientUnits="userSpaceOnUse">
<stop stop-color="#995D3B"/>
<stop offset="1" stop-color="#DFA576"/>
</linearGradient>
<linearGradient id="paint37_linear" x1="71.251" y1="30.7669" x2="71.251" y2="38.2671" gradientUnits="userSpaceOnUse">
<stop stop-color="#995D3B"/>
<stop offset="1" stop-color="#DFA576"/>
</linearGradient>
<linearGradient id="paint38_linear" x1="67.5009" y1="30.7669" x2="67.5009" y2="33.267" gradientUnits="userSpaceOnUse">
<stop stop-color="#995D3B"/>
<stop offset="1" stop-color="#DFA576"/>
</linearGradient>
<linearGradient id="paint39_linear" x1="58.7507" y1="30.7669" x2="58.7507" y2="43.2673" gradientUnits="userSpaceOnUse">
<stop stop-color="#995D3B"/>
<stop offset="1" stop-color="#DFA576"/>
</linearGradient>
<linearGradient id="paint40_linear" x1="74.3755" y1="42.0186" x2="74.3755" y2="47.0504" gradientUnits="userSpaceOnUse">
<stop stop-color="#995D3B"/>
<stop offset="1" stop-color="#DFA576"/>
</linearGradient>
<linearGradient id="paint41_linear" x1="65.0011" y1="42.0169" x2="65.0011" y2="45.7674" gradientUnits="userSpaceOnUse">
<stop stop-color="#995D3B"/>
<stop offset="1" stop-color="#DFA576"/>
</linearGradient>
<linearGradient id="paint42_linear" x1="55.626" y1="42.0193" x2="55.626" y2="47.0504" gradientUnits="userSpaceOnUse">
<stop stop-color="#995D3B"/>
<stop offset="1" stop-color="#DFA576"/>
</linearGradient>
<linearGradient id="paint43_linear" x1="61.2513" y1="63.2715" x2="61.2513" y2="67.0211" gradientUnits="userSpaceOnUse">
<stop stop-color="#995D3B"/>
<stop offset="1" stop-color="#DFA576"/>
</linearGradient>
<linearGradient id="paint44_linear" x1="63.7503" y1="63.2703" x2="63.7503" y2="67.0211" gradientUnits="userSpaceOnUse">
<stop stop-color="#995D3B"/>
<stop offset="1" stop-color="#DFA576"/>
</linearGradient>
<linearGradient id="paint45_linear" x1="68.7503" y1="63.2703" x2="68.7503" y2="67.0211" gradientUnits="userSpaceOnUse">
<stop stop-color="#995D3B"/>
<stop offset="1" stop-color="#DFA576"/>
</linearGradient>
<linearGradient id="paint46_linear" x1="66.2515" y1="63.2715" x2="66.2515" y2="67.0211" gradientUnits="userSpaceOnUse">
<stop stop-color="#995D3B"/>
<stop offset="1" stop-color="#DFA576"/>
</linearGradient>
<linearGradient id="paint47_linear" x1="51.8778" y1="74.5214" x2="51.8778" y2="78.2763" gradientUnits="userSpaceOnUse">
<stop stop-color="#995D3B"/>
<stop offset="1" stop-color="#DFA576"/>
</linearGradient>
<linearGradient id="paint48_linear" x1="78.1226" y1="74.5238" x2="78.1226" y2="78.2763" gradientUnits="userSpaceOnUse">
<stop stop-color="#995D3B"/>
<stop offset="1" stop-color="#DFA576"/>
</linearGradient>
<linearGradient id="paint49_linear" x1="65.0007" y1="75.7762" x2="65.0007" y2="78.2763" gradientUnits="userSpaceOnUse">
<stop stop-color="#995D3B"/>
<stop offset="1" stop-color="#DFA576"/>
</linearGradient>
<linearGradient id="paint50_linear" x1="40.0025" y1="50.7755" x2="40.0025" y2="53.2756" gradientUnits="userSpaceOnUse">
<stop stop-color="#995D3B"/>
<stop offset="1" stop-color="#DFA576"/>
</linearGradient>
<linearGradient id="paint51_linear" x1="40.0037" y1="48.2766" x2="40.0037" y2="70.7749" gradientUnits="userSpaceOnUse">
<stop stop-color="#995D3B"/>
<stop offset="1" stop-color="#DFA576"/>
</linearGradient>
<linearGradient id="paint52_linear" x1="40.0037" y1="68.2748" x2="40.0037" y2="70.7748" gradientUnits="userSpaceOnUse">
<stop stop-color="#995D3B"/>
<stop offset="1" stop-color="#DFA576"/>
</linearGradient>
<linearGradient id="paint53_linear" x1="47.4991" y1="59.5245" x2="47.4991" y2="64.5247" gradientUnits="userSpaceOnUse">
<stop stop-color="#995D3B"/>
<stop offset="1" stop-color="#DFA576"/>
</linearGradient>
<linearGradient id="paint54_linear" x1="46.2489" y1="50.7744" x2="46.2489" y2="60.7733" gradientUnits="userSpaceOnUse">
<stop stop-color="#995D3B"/>
<stop offset="1" stop-color="#DFA576"/>
</linearGradient>
<linearGradient id="paint55_linear" x1="48.7479" y1="50.7743" x2="48.7479" y2="60.7733" gradientUnits="userSpaceOnUse">
<stop stop-color="#995D3B"/>
<stop offset="1" stop-color="#DFA576"/>
</linearGradient>
<linearGradient id="paint56_linear" x1="32.5072" y1="59.5245" x2="32.5072" y2="64.5247" gradientUnits="userSpaceOnUse">
<stop stop-color="#995D3B"/>
<stop offset="1" stop-color="#DFA576"/>
</linearGradient>
<linearGradient id="paint57_linear" x1="31.2573" y1="50.7744" x2="31.2573" y2="60.7733" gradientUnits="userSpaceOnUse">
<stop stop-color="#995D3B"/>
<stop offset="1" stop-color="#DFA576"/>
</linearGradient>
<linearGradient id="paint58_linear" x1="33.7562" y1="50.7743" x2="33.7562" y2="60.7733" gradientUnits="userSpaceOnUse">
<stop stop-color="#995D3B"/>
<stop offset="1" stop-color="#DFA576"/>
</linearGradient>
<linearGradient id="paint59_linear" x1="32.506" y1="58.2733" x2="32.506" y2="60.7733" gradientUnits="userSpaceOnUse">
<stop stop-color="#995D3B"/>
<stop offset="1" stop-color="#DFA576"/>
</linearGradient>
<linearGradient id="paint60_linear" x1="47.4979" y1="58.2733" x2="47.4979" y2="60.7733" gradientUnits="userSpaceOnUse">
<stop stop-color="#995D3B"/>
<stop offset="1" stop-color="#DFA576"/>
</linearGradient>
<linearGradient id="paint61_linear" x1="35.0061" y1="58.2733" x2="35.0061" y2="62.0246" gradientUnits="userSpaceOnUse">
<stop stop-color="#995D3B"/>
<stop offset="1" stop-color="#DFA576"/>
</linearGradient>
<linearGradient id="paint62_linear" x1="49.9991" y1="58.2733" x2="49.9991" y2="62.0246" gradientUnits="userSpaceOnUse">
<stop stop-color="#995D3B"/>
<stop offset="1" stop-color="#DFA576"/>
</linearGradient>
<linearGradient id="paint63_linear" x1="30.0022" y1="58.2733" x2="30.0022" y2="62.0246" gradientUnits="userSpaceOnUse">
<stop stop-color="#995D3B"/>
<stop offset="1" stop-color="#DFA576"/>
</linearGradient>
<linearGradient id="paint64_linear" x1="45.0013" y1="58.2733" x2="45.0013" y2="62.0246" gradientUnits="userSpaceOnUse">
<stop stop-color="#995D3B"/>
<stop offset="1" stop-color="#DFA576"/>
</linearGradient>
<clipPath id="clip0">
<rect width="80" height="80" fill="white"/>
</clipPath>
</defs>
</svg>
