<svg width="119" height="58" viewBox="0 0 119 58" fill="none" xmlns="http://www.w3.org/2000/svg">
<path d="M14.7285 7.07C19.5385 7.07 23.2218 8.93334 25.7785 12.66C28.3352 16.3433 29.6135 21.6733 29.6135 28.65C29.6135 33.98 28.8769 38.6383 27.4035 42.625C25.9735 46.5683 23.9368 49.6017 21.2935 51.725C18.6502 53.8483 15.6169 54.91 12.1935 54.91C9.81018 54.91 7.75185 54.455 6.01852 53.545C4.97852 53.025 4.09018 52.3533 3.35352 51.53C2.66018 50.6633 2.31352 49.7317 2.31352 48.735C2.31352 47.7383 2.66018 46.915 3.35352 46.265C4.04685 45.5717 4.89185 45.225 5.88852 45.225C6.84185 45.225 7.66518 45.55 8.35852 46.2C9.05185 46.8067 9.39852 47.5867 9.39852 48.54C9.39852 49.32 9.16018 50.035 8.68352 50.685C8.20685 51.335 7.55685 51.8333 6.73352 52.18C7.21018 52.7 7.99018 53.1117 9.07352 53.415C10.1568 53.675 11.2185 53.805 12.2585 53.805C19.6252 53.805 23.3085 45.7667 23.3085 29.69V27.87C22.4419 31.0767 21.0552 33.4167 19.1485 34.89C17.2852 36.3633 15.0968 37.1 12.5835 37.1C10.3302 37.1 8.25018 36.5583 6.34352 35.475C4.48018 34.3917 2.96352 32.7667 1.79352 30.6C0.666849 28.39 0.103516 25.725 0.103516 22.605C0.103516 19.3117 0.753516 16.495 2.05352 14.155C3.35352 11.815 5.10852 10.06 7.31852 8.89001C9.52852 7.67667 11.9985 7.07 14.7285 7.07ZM13.6885 35.8C15.6385 35.8 17.5019 34.9333 19.2785 33.2C21.0985 31.4667 22.3769 28.4117 23.1135 24.035C22.4202 13.5917 19.5385 8.37001 14.4685 8.37001C12.0419 8.37001 10.0918 9.51834 8.61852 11.815C7.14518 14.0683 6.40852 17.6217 6.40852 22.475C6.40852 26.9817 7.05852 30.34 8.35852 32.55C9.70185 34.7167 11.4785 35.8 13.6885 35.8Z" fill="url(#paint0_linear)"/>
<path d="M53.0521 7.07C56.2588 7.07 59.0754 8.00167 61.5021 9.86501C63.9288 11.7283 65.7921 14.4367 67.0921 17.99C68.4354 21.5 69.1071 25.7033 69.1071 30.6C69.1071 35.3667 68.4138 39.5917 67.0271 43.275C65.6404 46.9583 63.7121 49.8183 61.2421 51.855C58.8154 53.8917 56.0638 54.91 52.9871 54.91C49.7804 54.91 46.9638 53.9783 44.5371 52.115C42.1104 50.2517 40.2254 47.565 38.8821 44.055C37.5821 40.5017 36.9321 36.2767 36.9321 31.38C36.9321 26.6133 37.6254 22.3883 39.0121 18.705C40.3988 15.0217 42.3054 12.1617 44.7321 10.125C47.2021 8.08834 49.9754 7.07 53.0521 7.07ZM52.7921 8.24C49.6288 8.24 47.2671 10.19 45.7071 14.09C44.1904 17.9467 43.4321 23.6233 43.4321 31.12C43.4321 38.53 44.2988 44.1633 46.0321 48.02C47.7654 51.8333 50.1704 53.74 53.2471 53.74C56.4104 53.74 58.7504 51.8117 60.2671 47.955C61.8271 44.055 62.6071 38.3567 62.6071 30.86C62.6071 23.45 61.7404 17.8383 60.0071 14.025C58.2738 10.1683 55.8688 8.24 52.7921 8.24Z" fill="url(#paint1_linear)"/>
<path d="M116.91 1.285L78.8845 57.575L77.6495 56.73L115.675 0.440002L116.91 1.285ZM84.7345 4.535C87.6812 4.535 90.0212 5.48834 91.7545 7.39501C93.5312 9.25834 94.4195 11.8367 94.4195 15.13C94.4195 18.38 93.5095 21.0233 91.6895 23.06C89.8695 25.0533 87.5512 26.05 84.7345 26.05C81.7879 26.05 79.4262 25.1183 77.6495 23.255C75.9162 21.3483 75.0495 18.7483 75.0495 15.455C75.0495 12.2483 75.9595 9.62667 77.7795 7.59C79.5995 5.55334 81.9179 4.535 84.7345 4.535ZM84.6045 5.705C81.2679 5.705 79.5995 8.93334 79.5995 15.39C79.5995 18.51 80.0545 20.8717 80.9645 22.475C81.9179 24.0783 83.2179 24.88 84.8645 24.88C88.1579 24.88 89.8045 21.6733 89.8045 15.26C89.8045 12.14 89.3495 9.77834 88.4395 8.175C87.5295 6.52834 86.2512 5.705 84.6045 5.705ZM108.915 33.395C111.861 33.395 114.201 34.3483 115.935 36.255C117.711 38.1183 118.6 40.6967 118.6 43.99C118.6 47.24 117.69 49.8833 115.87 51.92C114.05 53.9133 111.731 54.91 108.915 54.91C105.968 54.91 103.606 53.9783 101.83 52.115C100.096 50.2083 99.2295 47.6083 99.2295 44.315C99.2295 41.1083 100.14 38.4867 101.96 36.45C103.78 34.4133 106.098 33.395 108.915 33.395ZM108.785 34.565C105.448 34.565 103.78 37.7933 103.78 44.25C103.78 47.37 104.235 49.7317 105.145 51.335C106.098 52.9383 107.398 53.74 109.045 53.74C112.338 53.74 113.985 50.5333 113.985 44.12C113.985 41 113.53 38.6383 112.62 37.035C111.71 35.3883 110.431 34.565 108.785 34.565Z" fill="url(#paint2_linear)"/>
<defs>
<linearGradient id="paint0_linear" x1="59" y1="-12" x2="59" y2="66" gradientUnits="userSpaceOnUse">
<stop stop-color="#9A5E3C"/>
<stop offset="1" stop-color="#D59B6E"/>
</linearGradient>
<linearGradient id="paint1_linear" x1="59" y1="-12" x2="59" y2="66" gradientUnits="userSpaceOnUse">
<stop stop-color="#9A5E3C"/>
<stop offset="1" stop-color="#D59B6E"/>
</linearGradient>
<linearGradient id="paint2_linear" x1="59" y1="-12" x2="59" y2="66" gradientUnits="userSpaceOnUse">
<stop stop-color="#9A5E3C"/>
<stop offset="1" stop-color="#D59B6E"/>
</linearGradient>
</defs>
</svg>
