<svg width="40" height="40" viewBox="0 0 40 40" fill="none" xmlns="http://www.w3.org/2000/svg">
<path d="M30.9367 36.2534L5.93435 36.2497C5.58856 36.2497 5.3093 35.9696 5.3093 35.6247V0.625059C5.3093 0.279262 5.58856 0 5.93435 0H27.1863C27.3521 0 27.5114 0.065619 27.6283 0.183123L31.3786 3.92981C31.4961 4.04732 31.5618 4.20541 31.5618 4.37175V35.6283C31.5618 35.7947 31.4961 35.9534 31.3786 36.0703C31.2611 36.1872 31.103 36.2534 30.9367 36.2534ZM6.55941 34.9996L30.3116 35.0033V4.63056L26.9275 1.25012H6.55941V34.9996Z" fill="white"/>
<path d="M29.0633 38.1269L4.061 38.1233C3.71521 38.1233 3.43594 37.8431 3.43594 37.4982V2.49859C3.43594 2.1528 3.71521 1.87354 4.061 1.87354H5.93435C6.27984 1.87354 6.55941 2.1528 6.55941 2.49859C6.55941 2.84409 6.27984 3.12365 5.93435 3.12365H4.68606V36.8732L28.4383 36.8768V35.6249C28.4383 35.2791 28.7175 34.9998 29.0633 34.9998C29.4091 34.9998 29.6884 35.2791 29.6884 35.6249V37.5019C29.6884 37.6682 29.6228 37.8269 29.5053 37.9438C29.3878 38.0607 29.2297 38.1269 29.0633 38.1269Z" fill="white"/>
<path d="M27.1863 40L2.18399 39.996C1.83819 39.996 1.55893 39.7161 1.55893 39.3709V4.37164C1.55893 4.02584 1.83819 3.74658 2.18399 3.74658H4.05733C4.40282 3.74658 4.68239 4.02584 4.68239 4.37164C4.68239 4.71713 4.40282 4.9967 4.05733 4.9967H2.80905V38.7459L26.5613 38.7498V37.4979C26.5613 37.1521 26.8405 36.8728 27.1863 36.8728C27.5318 36.8728 27.8114 37.1521 27.8114 37.4979V39.3749C27.8114 39.5409 27.7458 39.6999 27.6283 39.8168C27.5108 39.9337 27.3527 40 27.1863 40Z" fill="white"/>
<path d="M30.9367 4.9967H27.1863C26.8405 4.9967 26.5613 4.71713 26.5613 4.37164C26.5613 4.02584 26.8405 3.74658 27.1863 3.74658H30.9367C31.2822 3.74658 31.5617 4.02584 31.5617 4.37164C31.5617 4.71713 31.2822 4.9967 30.9367 4.9967Z" fill="white"/>
<path d="M27.1863 4.99681C26.8405 4.99681 26.5613 4.71724 26.5613 4.37175V0.625059C26.5613 0.279262 26.8405 0 27.1863 0C27.5318 0 27.8114 0.279262 27.8114 0.625059V4.37175C27.8114 4.71724 27.5318 4.99681 27.1863 4.99681Z" fill="white"/>
<path d="M35.9372 8.7434C35.5914 8.7434 35.3121 8.46414 35.3121 8.11834C35.3121 7.77346 35.0319 7.49328 34.687 7.49328C34.3419 7.49328 34.062 7.77346 34.062 8.11834C34.062 8.46414 33.7824 8.7434 33.4369 8.7434C33.0911 8.7434 32.8119 8.46414 32.8119 8.11834C32.8119 7.08461 33.653 6.24316 34.687 6.24316C35.7208 6.24316 36.5622 7.08461 36.5622 8.11834C36.5622 8.46414 36.2827 8.7434 35.9372 8.7434Z" fill="white"/>
<path d="M33.4369 29.995C33.0911 29.995 32.8119 29.7158 32.8119 29.37V8.11798C32.8119 7.77249 33.0911 7.49292 33.4369 7.49292C33.7824 7.49292 34.062 7.77249 34.062 8.11798V29.37C34.062 29.7158 33.7824 29.995 33.4369 29.995Z" fill="white"/>
<path d="M35.9372 29.995C35.5914 29.995 35.3121 29.7158 35.3121 29.37V8.11798C35.3121 7.77249 35.5914 7.49292 35.9372 7.49292C36.2827 7.49292 36.5622 7.77249 36.5622 8.11798V29.37C36.5622 29.7158 36.2827 29.995 35.9372 29.995Z" fill="white"/>
<path d="M34.6877 31.8704C34.4856 31.8704 34.2869 31.7731 34.167 31.5924L32.9169 29.7172C32.7249 29.4297 32.8024 29.0421 33.0899 28.8501C33.3774 28.6591 33.765 28.7366 33.957 29.0235L35.2071 30.8987C35.3991 31.1862 35.3216 31.5738 35.0338 31.7654C34.9269 31.8369 34.8064 31.8704 34.6877 31.8704Z" fill="white"/>
<path d="M34.6864 31.8704C34.5677 31.8704 34.4468 31.8362 34.34 31.7654C34.0525 31.5738 33.975 31.1862 34.167 30.8987L35.4171 29.0235C35.6078 28.7366 35.9951 28.6591 36.2839 28.8501C36.5717 29.0421 36.6492 29.4297 36.4572 29.7172L35.2071 31.5924C35.0872 31.7731 34.8882 31.8704 34.6864 31.8704Z" fill="white"/>
<path d="M34.687 32.4955C34.3412 32.4955 34.062 32.2163 34.062 31.8705V31.2454C34.062 30.8999 34.3412 30.6204 34.687 30.6204C35.0325 30.6204 35.3121 30.8999 35.3121 31.2454V31.8705C35.3121 32.2163 35.0325 32.4955 34.687 32.4955Z" fill="white"/>
<path d="M35.9372 28.745H33.4369C33.0911 28.745 32.8119 28.4657 32.8119 28.1199C32.8119 27.7744 33.0911 27.4949 33.4369 27.4949H35.9372C36.2827 27.4949 36.5622 27.7744 36.5622 28.1199C36.5622 28.4657 36.2827 28.745 35.9372 28.745Z" fill="white"/>
<path d="M37.8123 10.6182C37.4665 10.6182 37.1873 10.3389 37.1873 9.9931C37.1873 9.64822 36.9071 9.36804 36.5622 9.36804C36.2164 9.36804 35.9372 9.08878 35.9372 8.74298C35.9372 8.39749 36.2164 8.11792 36.5622 8.11792C37.596 8.11792 38.4374 8.95937 38.4374 9.9931C38.4374 10.3389 38.1578 10.6182 37.8123 10.6182Z" fill="white"/>
<path d="M37.8123 18.119C37.4665 18.119 37.1873 17.8397 37.1873 17.4939V9.99322C37.1873 9.64773 37.4665 9.36816 37.8123 9.36816C38.1578 9.36816 38.4374 9.64773 38.4374 9.99322V17.4939C38.4374 17.8397 38.1578 18.119 37.8123 18.119Z" fill="white"/>
<path d="M36.5622 9.36804H35.9372C35.5914 9.36804 35.3121 9.08878 35.3121 8.74298C35.3121 8.39749 35.5914 8.11792 35.9372 8.11792H36.5622C36.9077 8.11792 37.1873 8.39749 37.1873 8.74298C37.1873 9.08878 36.9077 9.36804 36.5622 9.36804Z" fill="white"/>
<path d="M35.9372 14.9938H33.4369C33.0911 14.9938 32.8119 14.7145 32.8119 14.3687C32.8119 14.0232 33.0911 13.7437 33.4369 13.7437H35.9372C36.2827 13.7437 36.5622 14.0232 36.5622 14.3687C36.5622 14.7145 36.2827 14.9938 35.9372 14.9938Z" fill="white"/>
<path d="M26.5613 16.8729H10.3098C9.96395 16.8729 9.68469 16.5934 9.68469 16.2479C9.68469 15.9021 9.96395 15.6228 10.3098 15.6228H26.5613C26.9068 15.6228 27.1863 15.9021 27.1863 16.2479C27.1863 16.5934 26.9068 16.8729 26.5613 16.8729Z" fill="white"/>
<path d="M26.5613 19.9984H10.3098C9.96395 19.9984 9.68469 19.7188 9.68469 19.3734C9.68469 19.0276 9.96395 18.7483 10.3098 18.7483H26.5613C26.9068 18.7483 27.1863 19.0276 27.1863 19.3734C27.1863 19.7188 26.9068 19.9984 26.5613 19.9984Z" fill="white"/>
<path d="M26.5613 23.1234H10.3098C9.96395 23.1234 9.68469 22.8438 9.68469 22.4984C9.68469 22.1526 9.96395 21.8733 10.3098 21.8733H26.5613C26.9068 21.8733 27.1863 22.1526 27.1863 22.4984C27.1863 22.8438 26.9068 23.1234 26.5613 23.1234Z" fill="white"/>
<path d="M18.4355 26.2489H10.3098C9.96395 26.2489 9.68469 25.9693 9.68469 25.6238C9.68469 25.278 9.96395 24.9988 10.3098 24.9988H18.4355C18.781 24.9988 19.0606 25.278 19.0606 25.6238C19.0606 25.9693 18.781 26.2489 18.4355 26.2489Z" fill="white"/>
<path d="M26.5613 31.8741H22.1859C21.8401 31.8741 21.5608 31.5946 21.5608 31.2491C21.5608 30.9033 21.8401 30.624 22.1859 30.624H26.5613C26.9068 30.624 27.1863 30.9033 27.1863 31.2491C27.1863 31.5946 26.9068 31.8741 26.5613 31.8741Z" fill="white"/>
<path d="M23.436 33.1246C23.0902 33.1246 22.8109 32.8451 22.8109 32.4996V29.9993C22.8109 29.6535 23.0902 29.3743 23.436 29.3743C23.7815 29.3743 24.061 29.6535 24.061 29.9993V32.4996C24.061 32.8451 23.7815 33.1246 23.436 33.1246Z" fill="white"/>
<path d="M23.4354 33.1243C23.3048 33.1243 23.1735 33.0837 23.0609 32.9992C22.7847 32.7922 22.7285 32.4004 22.9358 32.1248L24.8109 29.6245C25.0179 29.3477 25.4098 29.2925 25.6857 29.4994C25.9619 29.7063 26.018 30.0982 25.8105 30.3741L23.9353 32.8743C23.8135 33.0379 23.6258 33.1243 23.4354 33.1243Z" fill="white"/>
<path d="M25.3112 33.1246C24.9654 33.1246 24.6861 32.8451 24.6861 32.4996V29.9993C24.6861 29.6535 24.9654 29.3743 25.3112 29.3743C25.6567 29.3743 25.9362 29.6535 25.9362 29.9993V32.4996C25.9362 32.8451 25.6567 33.1246 25.3112 33.1246Z" fill="white"/>
<path d="M15.3102 12.5101H10.3098C9.96395 12.5101 9.68469 12.2306 9.68469 11.8851C9.68469 11.5393 9.96395 11.26 10.3098 11.26H15.3102C15.6557 11.26 15.9353 11.5393 15.9353 11.8851C15.9353 12.2306 15.6557 12.5101 15.3102 12.5101Z" fill="white"/>
<path d="M12.81 12.51C12.4642 12.51 12.1849 12.2305 12.1849 11.885V6.26007C12.1849 5.91427 12.4642 5.63501 12.81 5.63501C13.1555 5.63501 13.4351 5.91427 13.4351 6.26007V11.885C13.4351 12.2299 13.1555 12.51 12.81 12.51Z" fill="white"/>
<path d="M15.3102 7.51012H10.3098C9.96395 7.51012 9.68469 7.23056 9.68469 6.88507C9.68469 6.53927 9.96395 6.26001 10.3098 6.26001H15.3102C15.6557 6.26001 15.9353 6.53927 15.9353 6.88507C15.9353 7.23056 15.6557 7.51012 15.3102 7.51012Z" fill="white"/>
<path d="M15.9353 9.38537H14.6852C14.3394 9.38537 14.0601 9.10581 14.0601 8.76031C14.0601 8.41452 14.3394 8.13525 14.6852 8.13525H15.9353C16.2808 8.13525 16.5603 8.41452 16.5603 8.76031C16.5603 9.10581 16.2808 9.38537 15.9353 9.38537Z" fill="white"/>
<path d="M10.9348 9.38537H9.68471C9.33891 9.38537 9.05965 9.10581 9.05965 8.76031C9.05965 8.41452 9.33891 8.13525 9.68471 8.13525H10.9348C11.2803 8.13525 11.5599 8.41452 11.5599 8.76031C11.5599 9.10581 11.2803 9.38537 10.9348 9.38537Z" fill="white"/>
</svg>
