<svg width="30" height="30" viewBox="0 0 30 30" fill="none" xmlns="http://www.w3.org/2000/svg">
<path d="M6.90165 10.2156C6.67314 9.98706 6.30165 9.98706 6.07319 10.2156C5.84409 10.4447 5.84409 10.8156 6.07319 11.0441C6.30171 11.2732 6.67319 11.2732 6.90165 11.0441C7.1307 10.8156 7.1307 10.4447 6.90165 10.2156Z" fill="#EAA064"/>
<path d="M14.8359 26.2335C15.0942 25.8836 15.2339 25.462 15.2339 25.0187C15.2339 23.888 14.314 22.968 13.1832 22.968H3.22255C2.67452 22.968 2.15954 23.1813 1.77241 23.5685C1.3851 23.9557 1.17182 24.4707 1.17182 25.0187C1.17182 25.4728 1.32041 25.8927 1.57114 26.2328C0.638146 26.7234 0 27.7019 0 28.8272V29.4131C0 29.7367 0.262383 29.999 0.585939 29.999H15.8198C16.1433 29.999 16.4057 29.7367 16.4057 29.4131V28.8272C16.4057 27.7024 15.7682 26.7243 14.8359 26.2335ZM2.60098 24.3971C2.76686 24.2311 2.98764 24.1398 3.22255 24.1398H13.1832C13.6678 24.1398 14.062 24.5341 14.062 25.0186C14.062 25.2536 13.9706 25.4743 13.8047 25.6402C13.6388 25.8062 13.418 25.8975 13.1831 25.8975H3.22255C2.73792 25.8975 2.3437 25.5033 2.3437 25.0187C2.3437 24.7838 2.43504 24.563 2.60098 24.3971ZM1.17182 28.8272C1.17182 27.858 1.96037 27.0694 2.92958 27.0694H3.22255H13.1832H13.4761C14.4453 27.0694 15.2339 27.858 15.2339 28.8272H1.17182Z" fill="#EAA064"/>
<path d="M29.4544 24.6166C29.2555 24.3083 29.018 24.0356 28.7487 23.8061L26.0109 21.4182C25.9896 21.3861 25.9648 21.3556 25.9365 21.3273C25.889 21.2798 25.835 21.2427 25.7777 21.215L24.1221 19.7709L16.4586 13.0859C16.7723 12.7579 16.945 12.3291 16.945 11.8731C16.945 11.4032 16.7621 10.9617 16.4297 10.6294C16.2848 10.4846 16.12 10.3708 15.9439 10.2874L16.6529 9.5784C16.8511 9.63107 17.0547 9.65803 17.2585 9.65803C17.8586 9.65797 18.4587 9.42957 18.9155 8.97277C19.3583 8.52998 19.6022 7.9414 19.6022 7.31544C19.6022 6.68949 19.3583 6.10091 18.9155 5.65812L13.944 0.686661C13.5012 0.243868 12.9125 0 12.2864 0C11.6606 0 11.0721 0.243868 10.6294 0.686661C10.0174 1.29862 9.81597 2.1675 10.0237 2.94926L2.95 10.0229C2.75453 9.97098 2.55116 9.94355 2.34338 9.94355C1.71713 9.94355 1.12879 10.1872 0.686348 10.6296C-0.227481 11.5435 -0.227481 13.0304 0.686348 13.9443L5.65786 18.9159C6.11483 19.3728 6.71501 19.6012 7.31518 19.6012C7.91542 19.6012 8.51559 19.3728 8.97257 18.9159C9.58452 18.3038 9.78597 17.435 9.57819 16.6533L10.2857 15.9457C10.3707 16.1232 10.4861 16.287 10.6294 16.4303C10.9614 16.7623 11.4028 16.9452 11.8725 16.9452C12.3281 16.9452 12.7567 16.7727 13.0852 16.4594L21.2476 25.8376C21.2701 25.8727 21.2964 25.9062 21.3271 25.9369C21.3376 25.9474 21.3487 25.9569 21.3598 25.9664L23.7921 28.761C23.8525 28.8323 23.9172 28.9025 23.9842 28.9696C24.6523 29.6374 25.5346 29.9998 26.461 29.9998C26.6243 29.9998 26.7891 29.9886 26.9542 29.9657C28.0575 29.813 29.0109 29.153 29.57 28.1547C30.1825 27.0606 30.1369 25.6715 29.4544 24.6166ZM11.4581 1.5153C11.6795 1.29387 11.9737 1.17188 12.2865 1.17188C12.5996 1.17188 12.894 1.29387 13.1154 1.5153L18.087 6.48681C18.3084 6.70824 18.4303 7.00255 18.4303 7.3155C18.4303 7.62845 18.3084 7.92277 18.0869 8.14419C17.6302 8.60105 16.8868 8.60105 16.4301 8.14419L11.4584 3.17245C11.4582 3.17233 11.4582 3.17227 11.4581 3.17215C11.0012 2.71536 11.0012 1.97209 11.4581 1.5153ZM8.14393 18.0872C7.68702 18.5441 6.94341 18.5442 6.48649 18.0872L1.51498 13.1157C1.05801 12.6587 1.05801 11.9153 1.51498 11.4583C1.736 11.2372 2.03026 11.1154 2.34338 11.1154C2.65645 11.1154 2.95053 11.2371 3.17149 11.458L8.14388 16.4304C8.60079 16.8872 8.60079 17.6305 8.14393 18.0872ZM10.6109 13.9634L8.97251 15.6018L4.00047 10.6297L10.6294 4.00073L15.6013 8.97277L13.96 10.6142C13.9547 10.6192 13.9495 10.6241 13.9438 10.6297L10.6311 13.9425C10.6242 13.9493 10.6176 13.9563 10.6109 13.9634ZM12.703 15.1857C12.7018 15.1869 12.7007 15.188 12.6995 15.1892L12.2869 15.6018C12.1762 15.7124 12.0291 15.7734 11.8724 15.7734C11.7158 15.7734 11.5686 15.7124 11.458 15.6017C11.3472 15.491 11.2862 15.3437 11.2862 15.1869C11.2862 15.0335 11.3447 14.8892 11.451 14.7804L14.7792 11.4522C15.0073 11.2303 15.3761 11.2331 15.6015 11.4583C15.7122 11.569 15.7732 11.7163 15.7732 11.8731C15.7732 12.0297 15.7124 12.1766 15.6014 12.2873L15.1912 12.6975C15.1884 12.7002 15.1856 12.703 15.1828 12.7058L12.703 15.1857ZM13.9164 15.6296L15.6288 13.9171L22.8793 20.2414L20.2336 22.8872L13.9164 15.6296ZM21.0047 23.7733L23.7645 21.0135L24.6496 21.7856L21.7759 24.6594L21.0047 23.7733ZM28.5476 27.5822C28.1695 28.2574 27.5302 28.703 26.7936 28.805C26.0587 28.9067 25.3366 28.6646 24.8127 28.1409C24.7676 28.0959 24.7245 28.049 24.6843 28.0014C24.6824 27.9992 24.6806 27.997 24.6786 27.9948L22.547 25.5455L25.5348 22.5576L27.981 24.6915C27.9829 24.6931 27.9847 24.6947 27.9867 24.6963C28.1698 24.852 28.3323 25.039 28.4701 25.2526C28.9132 25.9373 28.9443 26.8736 28.5476 27.5822Z" fill="#EAA064"/>
<path d="M11.0439 6.07249C10.815 5.84368 10.4441 5.84368 10.2152 6.07249L7.72922 8.5585C7.50041 8.78731 7.50041 9.15833 7.72922 9.38708C7.84366 9.50151 7.9936 9.5587 8.14354 9.5587C8.29348 9.5587 8.44342 9.50145 8.55786 9.38708L11.0439 6.90106C11.2727 6.67231 11.2727 6.30135 11.0439 6.07249Z" fill="#EAA064"/>
</svg>
