<svg width="35" height="35" viewBox="0 0 35 35" fill="none" xmlns="http://www.w3.org/2000/svg">
<g clip-path="url(#clip0)">
<path d="M34.9414 21.342L34.9466 21.3402L29.2003 8.80219L30.5938 8.10861L30.0723 7.06445L28.7138 7.74111L28.53 7.34036C28.3957 7.04753 28.0495 6.91898 27.7567 7.05322C27.6297 7.11148 27.5278 7.21335 27.4695 7.34036L27.3056 7.69853C26.3169 7.2393 25.24 7.00101 24.1498 7.00028H19.2498V5.83363H20.4165V4.66697H19.4138L19.8332 2.98873C20.1552 1.70009 19.3716 0.394382 18.083 0.0723114C16.7943 -0.249686 15.4886 0.53387 15.1665 1.82252C15.0709 2.20532 15.0709 2.60585 15.1665 2.98866L15.586 4.6669H14.5832V5.83355H15.7499V7.00021H10.8528C9.76157 7.00109 8.68358 7.23996 7.69411 7.70021L7.53019 7.34204C7.39596 7.04921 7.04968 6.92066 6.75685 7.0549C6.62983 7.11316 6.52796 7.21502 6.4697 7.34204L6.28595 7.74279L4.92738 7.06321L4.40589 8.10854L5.79946 8.80503L0.0530906 21.3402C0.0176534 21.4164 -0.000429743 21.4995 7.75284e-06 21.5835C0.00255981 23.8375 1.82925 25.6642 4.08331 25.6668H9.91659C12.1706 25.6642 13.9973 23.8375 13.9999 21.5835C13.9984 21.4997 13.9785 21.4172 13.9416 21.342L8.17944 8.75669C9.01703 8.3679 9.92942 8.16665 10.8528 8.16694H15.7499V29.5086L13.7584 31.5001H11.6666C10.0566 31.502 8.75183 32.8067 8.74993 34.4167C8.74993 34.7389 9.01112 35 9.33326 35H25.6665C25.9886 35 26.2498 34.7389 26.2498 34.4167C26.2479 32.8067 24.9431 31.502 23.3331 31.5001H21.2413L19.2498 29.5086V8.16694H24.1498C25.0732 8.16665 25.9856 8.3679 26.8232 8.75669L21.0529 21.3402C21.0175 21.4164 20.9994 21.4995 20.9998 21.5835C21.0024 23.8375 22.8291 25.6642 25.0831 25.6668H30.9164C33.1705 25.6642 34.9972 23.8375 34.9997 21.5835C34.9983 21.4997 34.9784 21.4172 34.9414 21.342ZM9.91659 24.5001H4.08331C2.69776 24.4986 1.5039 23.524 1.225 22.1668H12.7749C12.4961 23.524 11.3021 24.4986 9.91659 24.5001ZM12.5077 21.0002H1.49216L6.85062 9.30968C6.94847 9.33593 7.05143 9.33593 7.14928 9.30968L12.5077 21.0002ZM16.524 1.643C16.9782 1.104 17.7834 1.03539 18.3224 1.48965C18.3778 1.53632 18.4291 1.58765 18.4758 1.643C18.7117 1.94312 18.7951 2.3357 18.7015 2.70582L18.2109 4.66697H16.7888L16.2982 2.70582C16.2047 2.3357 16.2881 1.94312 16.524 1.643ZM16.9165 7.00028V5.83363H18.0832V7.00028H16.9165ZM18.0832 8.16694V29.1668H16.9165V8.16694H18.0832ZM23.3331 32.6667C24.0746 32.6676 24.7352 33.1347 24.9834 33.8334H10.0163C10.2645 33.1347 10.9252 32.6676 11.6666 32.6667H23.3331ZM19.5917 31.5001H15.408L16.5747 30.3334H18.425L19.5917 31.5001ZM27.8493 9.31143C27.9456 9.34534 28.0513 9.34096 28.1444 9.29918L33.5076 21.0002H22.492L27.8493 9.31143ZM30.9164 24.5001H25.0831C23.6976 24.4986 22.5037 23.524 22.2248 22.1668H33.7747C33.4959 23.524 32.302 24.4986 30.9164 24.5001Z" fill="#DA955C"/>
</g>
<defs>
<clipPath id="clip0">
<rect width="35" height="35" fill="white"/>
</clipPath>
</defs>
</svg>
