<svg width="20" height="20" viewBox="0 0 20 20" fill="none" xmlns="http://www.w3.org/2000/svg">
<g clip-path="url(#clip0)">
<path d="M19.5516 15.8057L16.4629 12.7167C15.8477 12.1039 14.8289 12.1226 14.1923 12.7594L12.6362 14.3152C12.5378 14.261 12.4361 14.2044 12.3291 14.1444C11.3464 13.5999 10.0015 12.8536 8.58625 11.4373C7.16679 10.018 6.41983 8.67103 5.87369 7.68774C5.81606 7.58357 5.76084 7.48313 5.70631 7.38775L6.75068 6.34494L7.26413 5.83085C7.90175 5.19306 7.91933 4.17455 7.30556 3.56003L4.21687 0.470661C3.6031 -0.142996 2.58384 -0.12438 1.94623 0.51341L1.07573 1.38891L1.09952 1.41252C0.807627 1.78497 0.563715 2.21453 0.382204 2.67776C0.214884 3.1187 0.110712 3.53946 0.0630789 3.9611C-0.344762 7.34219 1.2003 10.4323 5.39339 14.6254C11.1895 20.4211 15.8604 19.9833 16.062 19.9619C16.5008 19.9095 16.9214 19.8046 17.3489 19.6386C17.8081 19.4592 18.2373 19.2157 18.6095 18.9244L18.6286 18.9413L19.5104 18.0777C20.1467 17.4401 20.1651 16.4212 19.5516 15.8057Z" fill="#EAA064"/>
</g>
<defs>
<clipPath id="clip0">
<rect width="20" height="20" fill="white"/>
</clipPath>
</defs>
</svg>
