<svg width="35" height="35" viewBox="0 0 35 35" fill="none" xmlns="http://www.w3.org/2000/svg">
<path d="M10.1172 35C8.91075 35 7.92969 34.0189 7.92969 32.8125C7.92969 31.6061 8.91075 30.625 10.1172 30.625C10.4195 30.625 10.6641 30.8693 10.6641 31.1719C10.6641 31.4744 10.4195 31.7188 10.1172 31.7188C9.51397 31.7188 9.02344 32.2093 9.02344 32.8125C9.02344 33.4157 9.51397 33.9062 10.1172 33.9062C10.4195 33.9062 10.6641 34.1506 10.6641 34.4531C10.6641 34.7557 10.4195 35 10.1172 35Z" fill="#DA955C"/>
<path d="M30.3516 31.7188H10.1172C9.81464 31.7188 9.57031 31.4744 9.57031 31.1719C9.57031 30.8693 9.81464 30.625 10.1172 30.625H30.3516C30.6538 30.625 30.8984 30.8693 30.8984 31.1719C30.8984 31.4744 30.6538 31.7188 30.3516 31.7188Z" fill="#DA955C"/>
<path d="M30.3516 35H10.1172C9.81464 35 9.57031 34.7557 9.57031 34.4531C9.57031 34.1506 9.81464 33.9062 10.1172 33.9062H30.3516C30.6538 33.9062 30.8984 34.1506 30.8984 34.4531C30.8984 34.7557 30.6538 35 30.3516 35Z" fill="#DA955C"/>
<path d="M30.3516 31.7188C30.049 31.7188 29.8047 31.4744 29.8047 31.1719C29.8047 30.8693 30.049 30.625 30.3516 30.625C30.9545 30.625 31.4453 30.1345 31.4453 29.5312C31.4453 29.2287 31.6896 28.9844 31.9922 28.9844C32.2945 28.9844 32.5391 29.2287 32.5391 29.5312C32.5391 30.7377 31.5577 31.7188 30.3516 31.7188Z" fill="#DA955C"/>
<path d="M31.9922 2.73438C31.6896 2.73438 31.4453 2.48924 31.4453 2.1875C31.4453 1.58428 30.9545 1.09375 30.3516 1.09375C30.049 1.09375 29.8047 0.848617 29.8047 0.546875C29.8047 0.245132 30.049 0 30.3516 0C31.5577 0 32.5391 0.981064 32.5391 2.1875C32.5391 2.48924 32.2945 2.73438 31.9922 2.73438Z" fill="#DA955C"/>
<path d="M8.47656 2.73438C8.17402 2.73438 7.92969 2.48924 7.92969 2.1875C7.92969 0.981064 8.91075 0 10.1172 0C10.4195 0 10.6641 0.245132 10.6641 0.546875C10.6641 0.848617 10.4195 1.09375 10.1172 1.09375C9.51397 1.09375 9.02344 1.58428 9.02344 2.1875C9.02344 2.48924 8.77884 2.73438 8.47656 2.73438Z" fill="#DA955C"/>
<path d="M30.3516 35C30.049 35 29.8047 34.7557 29.8047 34.4531C29.8047 34.1506 30.049 33.9062 30.3516 33.9062C30.9545 33.9062 31.4453 33.4157 31.4453 32.8125C31.4453 32.51 31.6896 32.2656 31.9922 32.2656C32.2945 32.2656 32.5391 32.51 32.5391 32.8125C32.5391 34.0189 31.5577 35 30.3516 35Z" fill="#DA955C"/>
<path d="M31.9924 13.125C31.8522 13.125 31.7123 13.0713 31.6057 12.9648C31.3918 12.7509 31.3918 12.4054 31.6057 12.1915L33.633 10.1642V3.82812H31.9924C31.6898 3.82812 31.4455 3.58299 31.4455 3.28125C31.4455 2.97951 31.6898 2.73438 31.9924 2.73438H34.1799C34.4822 2.73438 34.7268 2.97951 34.7268 3.28125V10.3906C34.7268 10.5356 34.6691 10.675 34.5663 10.7773L32.3788 12.9648C32.2722 13.0713 32.1323 13.125 31.9924 13.125Z" fill="#DA955C"/>
<path d="M30.3516 1.09375H10.1172C9.81464 1.09375 9.57031 0.848617 9.57031 0.546875C9.57031 0.245132 9.81464 0 10.1172 0H30.3516C30.6538 0 30.8984 0.245132 30.8984 0.546875C30.8984 0.848617 30.6538 1.09375 30.3516 1.09375Z" fill="#DA955C"/>
<path d="M8.47656 33.3594C8.17402 33.3594 7.92969 33.115 7.92969 32.8125V2.1875C7.92969 1.88576 8.17402 1.64062 8.47656 1.64062C8.77884 1.64062 9.02344 1.88576 9.02344 2.1875V32.8125C9.02344 33.115 8.77884 33.3594 8.47656 33.3594Z" fill="#DA955C"/>
<path d="M29.8047 33.3594H10.6641C10.3615 33.3594 10.1172 33.115 10.1172 32.8125C10.1172 32.51 10.3615 32.2656 10.6641 32.2656H29.8047C30.107 32.2656 30.3516 32.51 30.3516 32.8125C30.3516 33.115 30.107 33.3594 29.8047 33.3594Z" fill="#DA955C"/>
<path d="M29.8047 33.3594C29.5021 33.3594 29.2578 33.115 29.2578 32.8125V31.1719C29.2578 30.8693 29.5021 30.625 29.8047 30.625C30.107 30.625 30.3516 30.8693 30.3516 31.1719V32.8125C30.3516 33.115 30.107 33.3594 29.8047 33.3594Z" fill="#DA955C"/>
<path d="M10.6641 33.3594C10.3615 33.3594 10.1172 33.115 10.1172 32.8125V31.1719C10.1172 30.8693 10.3615 30.625 10.6641 30.625C10.9663 30.625 11.2109 30.8693 11.2109 31.1719V32.8125C11.2109 33.115 10.9663 33.3594 10.6641 33.3594Z" fill="#DA955C"/>
<path d="M31.9922 33.3594C31.6896 33.3594 31.4453 33.115 31.4453 32.8125V2.1875C31.4453 1.88576 31.6896 1.64062 31.9922 1.64062C32.2945 1.64062 32.5391 1.88576 32.5391 2.1875V32.8125C32.5391 33.115 32.2945 33.3594 31.9922 33.3594Z" fill="#DA955C"/>
<path d="M8.47576 3.82812H0.820312C0.517769 3.82812 0.273438 3.58299 0.273438 3.28125C0.273438 2.97951 0.517769 2.73438 0.820312 2.73438H8.47576C8.77831 2.73438 9.02264 2.97951 9.02264 3.28125C9.02264 3.58299 8.77831 3.82812 8.47576 3.82812Z" fill="#DA955C"/>
<path d="M8.47576 31.1719H3.55469C3.25214 31.1719 3.00781 30.9275 3.00781 30.625C3.00781 30.3225 3.25214 30.0781 3.55469 30.0781H8.47576C8.77831 30.0781 9.02264 30.3225 9.02264 30.625C9.02264 30.9275 8.77831 31.1719 8.47576 31.1719Z" fill="#DA955C"/>
<path d="M0.820312 28.4375C0.517769 28.4375 0.273438 28.1932 0.273438 27.8906V3.28125C0.273438 2.97951 0.517769 2.73438 0.820312 2.73438C1.12259 2.73438 1.36719 2.97951 1.36719 3.28125V27.8906C1.36719 28.1932 1.12259 28.4375 0.820312 28.4375Z" fill="#DA955C"/>
<path d="M3.55489 31.1718C3.4147 31.1718 3.27477 31.1182 3.16823 31.0116L0.433855 28.2772C0.219965 28.0633 0.219965 27.7178 0.433855 27.5039C0.647478 27.29 0.99328 27.29 1.2069 27.5039L3.94128 30.2383C4.15517 30.4522 4.15517 30.7977 3.94128 31.0116C3.83473 31.1182 3.69481 31.1718 3.55489 31.1718Z" fill="#DA955C"/>
<path d="M3.55469 31.1719C3.25214 31.1719 3.00781 30.9275 3.00781 30.625V27.8906C3.00781 27.5881 3.25214 27.3438 3.55469 27.3438C3.85696 27.3438 4.10156 27.5881 4.10156 27.8906V30.625C4.10156 30.9275 3.85696 31.1719 3.55469 31.1719Z" fill="#DA955C"/>
<path d="M3.55469 28.4375H0.820312C0.517769 28.4375 0.273438 28.1932 0.273438 27.8906C0.273438 27.5881 0.517769 27.3438 0.820312 27.3438H3.55469C3.85696 27.3438 4.10156 27.5881 4.10156 27.8906C4.10156 28.1932 3.85696 28.4375 3.55469 28.4375Z" fill="#DA955C"/>
<path d="M8.47656 11.4844H4.64844C4.34589 11.4844 4.10156 11.2392 4.10156 10.9375C4.10156 10.6358 4.34589 10.3906 4.64844 10.3906H8.47656C8.77884 10.3906 9.02344 10.6358 9.02344 10.9375C9.02344 11.2392 8.77884 11.4844 8.47656 11.4844Z" fill="#DA955C"/>
<path d="M8.47656 14.7656H4.64844C4.34589 14.7656 4.10156 14.5205 4.10156 14.2188C4.10156 13.917 4.34589 13.6719 4.64844 13.6719H8.47656C8.77884 13.6719 9.02344 13.917 9.02344 14.2188C9.02344 14.5205 8.77884 14.7656 8.47656 14.7656Z" fill="#DA955C"/>
<path d="M8.47656 18.0469H4.64844C4.34589 18.0469 4.10156 17.8017 4.10156 17.5C4.10156 17.1983 4.34589 16.9531 4.64844 16.9531H8.47656C8.77884 16.9531 9.02344 17.1983 9.02344 17.5C9.02344 17.8017 8.77884 18.0469 8.47656 18.0469Z" fill="#DA955C"/>
<path d="M8.47656 21.3281H4.64844C4.34589 21.3281 4.10156 21.0838 4.10156 20.7812C4.10156 20.4787 4.34589 20.2344 4.64844 20.2344H8.47656C8.77884 20.2344 9.02344 20.4787 9.02344 20.7812C9.02344 21.0838 8.77884 21.3281 8.47656 21.3281Z" fill="#DA955C"/>
<path d="M25.4257 9.30688H15.583C15.2807 9.30688 15.0361 9.06175 15.0361 8.76001C15.0361 8.458 15.2807 8.21313 15.583 8.21313H25.4257C25.7282 8.21313 25.9726 8.458 25.9726 8.76001C25.9726 9.06175 25.7282 9.30688 25.4257 9.30688Z" fill="#DA955C"/>
<path d="M20.5049 20.2465C20.2026 20.2465 19.958 20.0022 19.958 19.6996V7.11938C19.958 6.81738 20.2026 6.57251 20.5049 6.57251C20.8074 6.57251 21.0518 6.81738 21.0518 7.11938V19.7002C21.0518 20.0022 20.8074 20.2465 20.5049 20.2465Z" fill="#DA955C"/>
<path d="M24.8799 20.2463H16.1299C15.8276 20.2463 15.583 20.002 15.583 19.6995C15.583 19.3972 15.8276 19.1526 16.1299 19.1526H24.8799C25.1824 19.1526 25.4268 19.3972 25.4268 19.6995C25.4268 20.002 25.1824 20.2463 24.8799 20.2463Z" fill="#DA955C"/>
<path d="M27.0702 24.0728H13.9409C13.6386 24.0728 13.394 23.8282 13.394 23.5259C13.394 23.2233 13.6386 22.979 13.9409 22.979H27.0702C27.3727 22.979 27.6171 23.2233 27.6171 23.5259C27.6171 23.8282 27.3727 24.0728 27.0702 24.0728Z" fill="#DA955C"/>
<path d="M23.7888 25.7131H17.2231C16.9209 25.7131 16.6763 25.4685 16.6763 25.1663C16.6763 24.8637 16.9209 24.6194 17.2231 24.6194H23.7888C24.0914 24.6194 24.3357 24.8637 24.3357 25.1663C24.3357 25.4685 24.0914 25.7131 23.7888 25.7131Z" fill="#DA955C"/>
<path d="M15.583 15.8701C14.3766 15.8701 13.3955 14.8891 13.3955 13.6826C13.3955 13.3806 13.6401 13.1357 13.9424 13.1357C14.2449 13.1357 14.4893 13.3806 14.4893 13.6826C14.4893 14.2858 14.9798 14.7764 15.583 14.7764C16.1862 14.7764 16.6768 14.2858 16.6768 13.6826C16.6768 13.3806 16.9214 13.1357 17.2236 13.1357C17.5262 13.1357 17.7705 13.3806 17.7705 13.6826C17.7705 14.8885 16.7894 15.8701 15.583 15.8701Z" fill="#DA955C"/>
<path d="M17.2236 14.2295H13.9424C13.6401 14.2295 13.3955 13.9844 13.3955 13.6826C13.3955 13.3806 13.6401 13.1357 13.9424 13.1357H17.2236C17.5262 13.1357 17.7705 13.3806 17.7705 13.6826C17.7705 13.9844 17.5262 14.2295 17.2236 14.2295Z" fill="#DA955C"/>
<path d="M13.9421 14.2297C13.8853 14.2297 13.8268 14.2203 13.7694 14.2011C13.4834 14.1055 13.328 13.796 13.4238 13.5095L15.0645 8.58657C15.1601 8.30058 15.4669 8.1441 15.7561 8.24077C16.0423 8.33663 16.1975 8.64612 16.1019 8.93264L14.4612 13.8556C14.3846 14.0847 14.1713 14.2297 13.9421 14.2297Z" fill="#DA955C"/>
<path d="M17.2234 14.2295C16.9943 14.2295 16.781 14.0845 16.7051 13.8554L15.0645 8.93244C14.9687 8.64591 15.1235 8.33643 15.41 8.24056C15.6982 8.14443 16.0066 8.30038 16.1019 8.58637L17.7425 13.5093C17.8381 13.7958 17.6835 14.1053 17.3967 14.2009C17.3388 14.2201 17.2809 14.2295 17.2234 14.2295Z" fill="#DA955C"/>
<path d="M25.4263 15.8701C24.2198 15.8701 23.2388 14.8891 23.2388 13.6826C23.2388 13.3806 23.4834 13.1357 23.7856 13.1357C24.0882 13.1357 24.3325 13.3806 24.3325 13.6826C24.3325 14.2858 24.8231 14.7764 25.4263 14.7764C26.0295 14.7764 26.52 14.2858 26.52 13.6826C26.52 13.3806 26.7646 13.1357 27.0669 13.1357C27.3694 13.1357 27.6138 13.3806 27.6138 13.6826C27.6138 14.8885 26.6327 15.8701 25.4263 15.8701Z" fill="#DA955C"/>
<path d="M27.0669 14.2295H23.7856C23.4834 14.2295 23.2388 13.9844 23.2388 13.6826C23.2388 13.3806 23.4834 13.1357 23.7856 13.1357H27.0669C27.3694 13.1357 27.6138 13.3806 27.6138 13.6826C27.6138 13.9844 27.3694 14.2295 27.0669 14.2295Z" fill="#DA955C"/>
<path d="M23.7849 14.2297C23.728 14.2297 23.6696 14.2203 23.6121 14.2011C23.3262 14.1055 23.1707 13.796 23.2666 13.5095L24.9072 8.58657C25.0028 8.30058 25.3091 8.1441 25.5988 8.24077C25.8848 8.33663 26.0402 8.64612 25.9446 8.93264L24.304 13.8556C24.2274 14.0847 24.014 14.2297 23.7849 14.2297Z" fill="#DA955C"/>
<path d="M27.0667 14.2295C26.8376 14.2295 26.6242 14.0845 26.5484 13.8554L24.9078 8.93244C24.8119 8.64591 24.9668 8.33643 25.2533 8.24056C25.5414 8.14443 25.8493 8.30038 25.9452 8.58637L27.5858 13.5093C27.6814 13.7958 27.5268 14.1053 27.24 14.2009C27.1821 14.2201 27.1241 14.2295 27.0667 14.2295Z" fill="#DA955C"/>
</svg>
