<svg width="120" height="120" viewBox="0 0 120 120" fill="none" xmlns="http://www.w3.org/2000/svg">
<path d="M97.5 120H22.5C10.0726 120 0 109.927 0 97.5V22.5C0 10.0726 10.0726 0 22.5 0H97.5C109.927 0 120 10.0726 120 22.5V97.5C120 109.927 109.927 120 97.5 120Z" fill="#FFF3EA"/>
<path d="M60 30C43.4592 30 30 43.4592 30 60C30 76.5408 43.4592 90 60 90C76.5408 90 90 76.5408 90 60C90 43.4592 76.5408 30 60 30ZM75.206 53.6435L58.9572 69.8923C58.4702 70.3802 57.8284 70.6238 57.1912 70.6238C56.5503 70.6238 55.9122 70.3802 55.4251 69.8923L47.2989 61.7661C46.3239 60.791 46.3239 59.209 47.2989 58.2303C48.2739 57.2516 49.856 57.2552 50.8347 58.2303L57.1912 64.5859L71.6739 50.1041C72.6489 49.129 74.231 49.129 75.2097 50.1041C76.1884 51.0791 76.181 52.6648 75.206 53.6435Z" fill="#EAA064"/>
</svg>
