<svg width="16" height="16" viewBox="0 0 16 16" fill="none" xmlns="http://www.w3.org/2000/svg">
<g clip-path="url(#clip0)">
<path d="M11.9994 0.00332903L9.92454 0C7.59355 0 6.08716 1.5455 6.08716 3.93758V5.75307H4.00102C3.82075 5.75307 3.67477 5.89921 3.67477 6.07948V8.70992C3.67477 8.89018 3.82092 9.03616 4.00102 9.03616H6.08716V15.6736C6.08716 15.8539 6.23314 15.9998 6.41341 15.9998H9.13523C9.31549 15.9998 9.46147 15.8537 9.46147 15.6736V9.03616H11.9007C12.0809 9.03616 12.2269 8.89018 12.2269 8.70992L12.2279 6.07948C12.2279 5.99293 12.1934 5.91003 12.1324 5.84878C12.0713 5.78752 11.988 5.75307 11.9015 5.75307H9.46147V4.21406C9.46147 3.47435 9.63774 3.09883 10.6013 3.09883L11.999 3.09833C12.1791 3.09833 12.3251 2.95219 12.3251 2.77209V0.329574C12.3251 0.14964 12.1793 0.00366194 11.9994 0.00332903Z" fill="#777777"/>
</g>
<defs>
<clipPath id="clip0">
<rect width="16" height="15.9998" fill="white"/>
</clipPath>
</defs>
</svg>
