<svg width="30" height="30" viewBox="0 0 30 30" fill="none" xmlns="http://www.w3.org/2000/svg">
<path d="M15 20.8594C15 21.183 14.7377 21.4453 14.4141 21.4453C14.0904 21.4453 13.8281 21.183 13.8281 20.8594C13.8281 20.5357 14.0904 20.2734 14.4141 20.2734C14.7377 20.2734 15 20.5357 15 20.8594Z" fill="#EAA064"/>
<path d="M20.8594 8.20312C20.3776 8.20312 19.9292 8.34938 19.5564 8.59978C19.2398 7.69455 18.3749 7.03125 17.3438 7.03125C16.6445 7.03125 16.0165 7.33932 15.5866 7.82661C15.1332 7.313 14.5008 7.03125 13.8281 7.03125C13.1287 7.03125 12.5002 7.33978 12.0703 7.8273C11.6405 7.33978 11.012 7.03125 10.3125 7.03125C9.02023 7.03125 7.96875 8.08273 7.96875 9.375V12.6574C7.23885 13.2067 6.79688 14.0753 6.79688 15C6.79688 18.1224 8.26744 21.0828 10.7812 22.9688C11.2164 23.2951 11.4844 23.812 11.4844 24.375V29.4141C11.4844 29.7377 11.7467 30 12.0703 30H21.4453C21.769 30 22.0312 29.7377 22.0312 29.4141V24.4693C22.4126 23.3093 22.7048 22.1107 22.9008 20.9049C23.1015 19.6674 23.2031 18.4051 23.2031 17.1533C23.2031 16.3955 23.2031 11.3088 23.2031 10.5469C23.2031 9.25209 22.1544 8.20312 20.8594 8.20312ZM20.8594 9.375C21.5067 9.375 22.0312 9.8996 22.0312 10.5469V14.4141C22.0312 15.0602 21.5055 15.5859 20.8594 15.5859C20.2132 15.5859 19.6875 15.0602 19.6875 14.4141C19.6875 13.4182 19.6875 11.4592 19.6875 10.5469C19.6875 9.90074 20.2132 9.375 20.8594 9.375ZM17.3438 8.20312C17.991 8.20312 18.5156 8.72772 18.5156 9.375V13.2422C18.5156 13.8883 17.9899 14.4141 17.3438 14.4141C16.6976 14.4141 16.1719 13.8883 16.1719 13.2422V9.375C16.1719 8.72887 16.6976 8.20312 17.3438 8.20312ZM13.8281 8.20312C14.4754 8.20312 15 8.72772 15 9.375V12.0703H12.6562V9.375C12.6562 8.72887 13.182 8.20312 13.8281 8.20312ZM10.3125 8.20312C10.9586 8.20312 11.4844 8.72887 11.4844 9.375V12.0703H9.72656C9.52904 12.0703 9.33289 12.0907 9.14062 12.1298V9.375C9.14062 8.72887 9.66637 8.20312 10.3125 8.20312ZM12.6562 28.8281V26.1328H20.8594V28.8281H12.6562ZM21.7442 20.7172C21.3666 23.0402 20.8594 24.0939 20.8594 24.375V24.9609H12.6562V24.375C12.6562 23.4673 12.2333 22.5929 11.4844 22.0312C9.26285 20.3645 7.96875 17.7509 7.96875 15C7.96875 14.0476 8.7394 13.2415 9.72656 13.2415H14.9412C14.669 14.5773 13.485 15.5859 12.0703 15.5859H10.8984C10.5748 15.5859 10.3125 15.8482 10.3125 16.1719C10.3125 16.4955 10.5748 16.7578 10.8984 16.7578H11.4844C12.5993 16.7578 13.5661 17.55 13.783 18.6411C13.8457 18.9562 14.1525 19.165 14.4722 19.1013C14.7894 19.0384 14.9957 18.7299 14.9325 18.4124C14.7716 17.6033 14.3358 16.9041 13.7347 16.4035C14.5013 16.0616 15.1451 15.4923 15.5777 14.7805C16.0078 15.2735 16.6397 15.5859 17.3438 15.5859C17.826 15.5859 18.2746 15.4395 18.6477 15.1886C18.9684 16.1014 19.8383 16.7578 20.8594 16.7578C21.286 16.7578 21.6863 16.6427 22.0312 16.4424V17.1533C22.0312 18.3424 21.9347 19.5417 21.7442 20.7172Z" fill="#EAA064"/>
<path d="M16.1719 4.10156V0.585938C16.1719 0.262299 15.9096 0 15.5859 0C15.2623 0 15 0.262299 15 0.585938V4.10156C15 4.4252 15.2623 4.6875 15.5859 4.6875C15.9096 4.6875 16.1719 4.4252 16.1719 4.10156Z" fill="#EAA064"/>
<path d="M20.1135 4.84691L22.5992 2.36057C22.8278 2.13168 22.8278 1.76089 22.599 1.53201C22.3701 1.30313 21.9993 1.30313 21.7704 1.53201L19.2847 4.01813C19.0561 4.24701 19.0561 4.61803 19.285 4.84691C19.5139 5.07556 19.8846 5.07579 20.1135 4.84691Z" fill="#EAA064"/>
<path d="M12.2296 4.50349C12.4585 4.27461 12.4583 3.90359 12.2296 3.67494L9.74329 1.18928C9.51464 0.96063 9.14362 0.96063 8.91474 1.18951C8.68586 1.41817 8.68609 1.78918 8.91474 2.01806L11.4009 4.50372C11.6297 4.73237 12.0008 4.73237 12.2296 4.50349Z" fill="#EAA064"/>
</svg>
