<svg width="20" height="20" viewBox="0 0 20 20" fill="none" xmlns="http://www.w3.org/2000/svg">
<path d="M9.99993 0C6.00598 0 2.75668 3.2493 2.75668 7.2432C2.75668 12.1998 9.23867 19.4763 9.51465 19.7836C9.77387 20.0723 10.2264 20.0718 10.4852 19.7836C10.7612 19.4763 17.2432 12.1998 17.2432 7.2432C17.2431 3.2493 13.9938 0 9.99993 0ZM9.99993 10.8875C7.99047 10.8875 6.35571 9.25266 6.35571 7.2432C6.35571 5.23375 7.99051 3.59898 9.99993 3.59898C12.0093 3.59898 13.6441 5.23379 13.6441 7.24324C13.6441 9.25269 12.0093 10.8875 9.99993 10.8875Z" fill="#EAA064"/>
</svg>
