<svg width="30" height="30" viewBox="0 0 30 30" fill="none" xmlns="http://www.w3.org/2000/svg">
<path d="M16.1632 10.6067H15.285V9.72852H16.1632V10.6067ZM14.6995 10.6067H13.8213V9.72852H14.6995V10.6067Z" fill="#EAA064"/>
<path d="M14.9922 5.50146L5.8877 13.1191H24.0964L14.9922 5.50146ZM14.9922 6.64656L21.678 12.2407H8.30583L14.9922 6.64656Z" fill="#EAA064"/>
<path d="M28.4933 27.1976V25.2299L27.8751 25.229L27.6247 23.2324H26.9964V16.9077H27.6247L27.8728 14.9297H29.0824L15.4314 3.50784V3.01506H18.5255V0H14.5535C14.5535 3.58612 14.5532 3.4845 14.5532 3.50784L0.902023 14.9297H2.11235L2.36023 16.9077H2.98851V23.2324H2.36023L2.11464 25.229L1.493 25.1912V27.1589L0.00411987 27.1566L0 30H29.978L29.9821 27.1996L28.4933 27.1976ZM2.37282 26.0889H27.6151V27.1976H2.37122L2.37282 26.0889ZM7.04681 23.2324H6.41853V16.9077H7.04681L7.29492 14.9297H8.8765L9.1246 16.9077H9.75288V23.2324H9.1246L8.87764 25.229H7.29355L7.04681 23.2324ZM20.0855 16.0295H16.9489L16.8109 14.9297H20.2233L20.0855 16.0295ZM20.2233 25.229H16.8109L16.9487 24.1106H20.0853L20.2233 25.229ZM19.3538 23.2324H17.6804V16.9077H19.3538V23.2324ZM16.1737 16.9077H16.8022V23.2324H16.1737L15.9256 25.229H14.0591L13.8112 23.2324H13.1829V16.9077H13.8112L14.0593 14.9297H15.9258L16.1737 16.9077ZM9.76273 25.229L9.8996 24.1106H13.0362L13.1738 25.229H9.76273ZM10.6313 16.9077H12.3045V23.2324H10.6313V16.9077ZM13.0362 16.0295H9.8996L9.76181 14.9297H13.174L13.0362 16.0295ZM21.1095 25.229L20.8605 23.2324H20.232V16.9077H20.8605L21.1084 14.9297H22.6902L22.9383 16.9077H23.5666V23.2324H22.9383L22.6888 25.229H21.1095ZM26.9877 25.229H23.5753L23.7131 24.1106H26.8497L26.9877 25.229ZM26.1182 23.2324H24.4448V16.9077H26.1182V23.2324ZM26.8497 16.0295H23.7131L23.5753 14.9297H26.9877L26.8497 16.0295ZM15.4317 0.87822H17.647V2.13684H15.4317V0.87822ZM14.9924 4.28558L26.6643 14.0515H3.32039L14.9924 4.28558ZM6.40984 14.9297L6.27182 16.0295H3.13545L2.99744 14.9297H6.40984ZM3.86696 16.9077H5.54031V23.2324H3.86696V16.9077ZM3.13545 24.1106H6.27182L6.40823 25.229H2.9995L3.13545 24.1106ZM29.101 29.1234H0.879593L0.880966 28.0362H29.1026L29.101 29.1234Z" fill="#EAA064"/>
<path d="M25.9101 11.4598H26.7883V4.78491H18.8965V5.66336H25.9101V11.4598Z" fill="#EAA064"/>
<path d="M4.07451 5.66336H11.0877V4.78491H3.19629V11.4593H4.07451V5.66336Z" fill="#EAA064"/>
</svg>
