<svg width="40" height="40" viewBox="0 0 40 40" fill="none" xmlns="http://www.w3.org/2000/svg">
<g clip-path="url(#clip0)">
<path d="M1.10478 33.385C0.756624 33.385 0.474899 33.1036 0.474899 32.7551C0.474899 29.6285 3.01842 27.085 6.14506 27.085C6.49353 27.085 6.77495 27.3664 6.77495 27.7148C6.77495 28.0633 6.49353 28.3447 6.14506 28.3447C3.71319 28.3447 1.73466 30.3232 1.73466 32.7551C1.73466 33.1036 1.45325 33.385 1.10478 33.385Z" fill="white"/>
<path d="M25.0366 29.0175C24.9296 29.0175 24.821 28.9904 24.7223 28.9332C24.057 28.5491 23.2955 28.3455 22.5195 28.3455C22.1711 28.3455 21.8896 28.064 21.8896 27.7156C21.8896 27.3674 22.1711 27.0857 22.5195 27.0857C23.5173 27.0857 24.4968 27.3471 25.3522 27.8417C25.6539 28.0161 25.7572 28.4014 25.5825 28.7019C25.4663 28.9055 25.2544 29.0175 25.0366 29.0175Z" fill="white"/>
<path d="M8.66336 28.3447H6.14506C5.79691 28.3447 5.51518 28.0633 5.51518 27.7148C5.51518 27.3664 5.79691 27.085 6.14506 27.085H8.66336C9.01182 27.085 9.29324 27.3664 9.29324 27.7148C9.29324 28.0633 9.01182 28.3447 8.66336 28.3447Z" fill="white"/>
<path d="M1.1054 37.793C0.757854 37.793 0.475514 37.5115 0.475514 37.1631L0.474899 32.7551C0.474899 32.4076 0.756624 32.1252 1.10478 32.1252C1.45263 32.1252 1.73466 32.407 1.73466 32.7551L1.73528 37.1631C1.73528 37.5106 1.45386 37.793 1.1054 37.793Z" fill="white"/>
<path d="M1.73528 38.4229C1.0405 38.4229 0.475513 37.8579 0.475513 37.1631C0.475513 36.8146 0.757238 36.5332 1.1054 36.5332C1.45386 36.5332 1.73528 36.8146 1.73528 37.1631V37.1643C2.08374 37.1643 2.36516 37.4454 2.36516 37.7936C2.36516 38.1414 2.08374 38.4229 1.73528 38.4229Z" fill="white"/>
<path d="M25.0372 38.4228H1.73528C1.38712 38.4228 1.1054 38.1414 1.1054 37.793C1.1054 37.4445 1.38712 37.1631 1.73528 37.1631H25.0372C25.3854 37.1631 25.6671 37.4445 25.6671 37.793C25.6671 38.1414 25.3854 38.4228 25.0372 38.4228Z" fill="white"/>
<path d="M9.9225 27.0851C9.57435 27.0851 9.29262 26.8036 9.29262 26.4552V24.1057C9.29262 23.7572 9.57435 23.4758 9.9225 23.4758C10.271 23.4758 10.5524 23.7572 10.5524 24.1057V26.4552C10.5524 26.8036 10.271 27.0851 9.9225 27.0851Z" fill="white"/>
<path d="M18.7408 27.0851C18.3927 27.0851 18.111 26.8036 18.111 26.4552V24.1057C18.111 23.7572 18.3927 23.4758 18.7408 23.4758C19.0893 23.4758 19.3707 23.7572 19.3707 24.1057V26.4552C19.3707 26.8036 19.0893 27.0851 18.7408 27.0851Z" fill="white"/>
<path d="M10.9039 29.6057C10.6816 29.6057 10.4669 29.4879 10.3516 29.28C10.1833 28.9752 10.294 28.5917 10.5991 28.4241L14.0275 26.5332C14.3329 26.3656 14.7158 26.4766 14.8834 26.7808C15.0517 27.0856 14.9406 27.4691 14.6359 27.6367L11.2075 29.5276C11.1112 29.5805 11.0067 29.6057 10.9039 29.6057Z" fill="white"/>
<path d="M17.7594 29.6056C17.6567 29.6056 17.5521 29.5804 17.4559 29.5275L14.0275 27.6366C13.7233 27.4683 13.6123 27.0854 13.7799 26.7806C13.9482 26.4771 14.3311 26.366 14.6359 26.5331L18.0642 28.4239C18.3687 28.5922 18.4794 28.9751 18.3118 29.2799C18.1974 29.4878 17.9818 29.6056 17.7594 29.6056Z" fill="white"/>
<path d="M7.40299 29.6057C7.24182 29.6057 7.08036 29.5439 6.95764 29.4212C6.71128 29.1748 6.71128 28.7768 6.95764 28.5305L9.47717 26.0097C9.72352 25.7634 10.1215 25.7634 10.3679 26.0097C10.6142 26.2561 10.6142 26.6541 10.3679 26.9004L7.84833 29.4212C7.72562 29.5439 7.56415 29.6057 7.40299 29.6057Z" fill="white"/>
<path d="M9.92251 32.124C9.76135 32.124 9.59988 32.0622 9.47717 31.9395L6.95764 29.4212C6.71128 29.1748 6.71128 28.7768 6.95764 28.5305C7.20399 28.2841 7.60198 28.2841 7.84833 28.5305L10.3679 31.0488C10.6142 31.2951 10.6142 31.6931 10.3679 31.9395C10.2451 32.0622 10.0837 32.124 9.92251 32.124Z" fill="white"/>
<path d="M8.66274 33.3838C8.50158 33.3838 8.34011 33.3219 8.21739 33.1992C7.97104 32.9529 7.97104 32.5549 8.21739 32.3085L9.47716 31.0488C9.72352 30.8024 10.1215 30.8024 10.3679 31.0488C10.6142 31.2951 10.6142 31.6931 10.3679 31.9395L9.10809 33.1992C8.98537 33.3219 8.8239 33.3838 8.66274 33.3838Z" fill="white"/>
<path d="M12.4427 38.4228C12.2504 38.4228 12.0622 38.3358 11.9383 38.1709L8.15897 33.1319C7.94983 32.8542 8.00642 32.4592 8.28476 32.2507C8.56249 32.0416 8.9577 32.0976 9.16592 32.3765L12.9452 37.4156C13.1543 37.6933 13.0978 38.0885 12.8194 38.2967C12.7065 38.3819 12.5743 38.4228 12.4427 38.4228Z" fill="white"/>
<path d="M14.3317 38.4227C14.0798 38.4227 13.8417 38.2702 13.7446 38.0207L9.33538 26.6828C9.20959 26.3587 9.37013 25.9939 9.69399 25.8678C10.0182 25.7414 10.3835 25.9026 10.509 26.2264L14.9182 37.5643C15.044 37.8885 14.8834 38.2532 14.5596 38.3793C14.4849 38.4095 14.408 38.4227 14.3317 38.4227Z" fill="white"/>
<path d="M21.2604 29.6057C21.0992 29.6057 20.9377 29.5439 20.815 29.4212L18.2955 26.9004C18.0491 26.6541 18.0491 26.2561 18.2955 26.0097C18.5418 25.7634 18.9398 25.7634 19.1862 26.0097L21.7057 28.5305C21.9521 28.7768 21.9521 29.1748 21.7057 29.4212C21.583 29.5439 21.4215 29.6057 21.2604 29.6057Z" fill="white"/>
<path d="M18.7408 32.124C18.5797 32.124 18.4182 32.0622 18.2955 31.9395C18.0491 31.6931 18.0491 31.2951 18.2955 31.0488L20.815 28.5305C21.0614 28.2841 21.4594 28.2841 21.7057 28.5305C21.9521 28.7768 21.9521 29.1748 21.7057 29.4212L19.1862 31.9395C19.0635 32.0622 18.902 32.124 18.7408 32.124Z" fill="white"/>
<path d="M20.0006 33.3838C19.8394 33.3838 19.678 33.3219 19.5553 33.1992L18.2955 31.9395C18.0491 31.6931 18.0491 31.2951 18.2955 31.0488C18.5418 30.8024 18.9398 30.8024 19.1862 31.0488L20.4459 32.3085C20.6923 32.5549 20.6923 32.9529 20.4459 33.1992C20.3232 33.3219 20.1618 33.3838 20.0006 33.3838Z" fill="white"/>
<path d="M16.2207 38.4229C16.0891 38.4229 15.9568 38.382 15.8433 38.2968C15.565 38.0885 15.5084 37.6933 15.7175 37.4156L19.4968 32.3765C19.7054 32.0982 20.1009 32.0428 20.378 32.2507C20.6563 32.4593 20.7129 32.8542 20.5038 33.1319L16.7245 38.171C16.6018 38.3358 16.4129 38.4229 16.2207 38.4229Z" fill="white"/>
<path d="M14.3317 38.4227C14.2554 38.4227 14.1785 38.4095 14.1038 38.38C13.7793 38.2539 13.6188 37.8891 13.7452 37.565L18.1543 26.2271C18.2798 25.902 18.6458 25.7414 18.9694 25.8685C19.2938 25.9946 19.4544 26.3593 19.328 26.6835L14.9188 38.0214C14.8216 38.2702 14.5836 38.4227 14.3317 38.4227Z" fill="white"/>
<path d="M22.5195 28.3459H20.0006C19.6525 28.3459 19.3707 28.0645 19.3707 27.7161C19.3707 27.3679 19.6525 27.0862 20.0006 27.0862H22.5195C22.868 27.0862 23.1494 27.3679 23.1494 27.7161C23.1494 28.0645 22.868 28.3459 22.5195 28.3459Z" fill="white"/>
<path d="M12.3722 33.3836C12.2901 33.3836 12.2071 33.3679 12.1271 33.3337C11.8066 33.1984 11.6565 32.8287 11.7922 32.5085L13.1217 29.3604C13.2571 29.0399 13.6268 28.8895 13.9469 29.0254C14.2674 29.1608 14.4175 29.5304 14.2819 29.8506L12.9523 32.9988C12.8502 33.2393 12.617 33.3836 12.3722 33.3836Z" fill="white"/>
<path d="M16.2911 33.3838C16.0457 33.3838 15.8126 33.2395 15.7111 32.999L14.3815 29.8496C14.2462 29.5288 14.396 29.1597 14.7164 29.0244C15.0366 28.8897 15.4063 29.0389 15.5416 29.3594L16.8715 32.5088C17.0068 32.8296 16.8567 33.1986 16.5363 33.334C16.4563 33.3681 16.3733 33.3838 16.2911 33.3838Z" fill="white"/>
<path d="M14.9616 30.2356H13.7018C13.3536 30.2356 13.0719 29.9542 13.0719 29.6057C13.0719 29.2576 13.3536 28.9758 13.7018 28.9758H14.9616C15.31 28.9758 15.5914 29.2576 15.5914 29.6057C15.5914 29.9542 15.31 30.2356 14.9616 30.2356Z" fill="white"/>
<path d="M14.9616 30.2355C14.8173 30.2355 14.6718 30.1863 14.5534 30.0851C14.2883 29.86 14.2566 29.462 14.483 29.1975L15.7428 27.7185C15.9682 27.4533 16.3656 27.4214 16.6301 27.648C16.8952 27.8729 16.9269 28.2708 16.7008 28.5356L15.441 30.0144C15.3162 30.1605 15.1393 30.2355 14.9616 30.2355Z" fill="white"/>
<path d="M13.7018 30.2356C13.5243 30.2356 13.3472 30.1606 13.2226 30.0139L11.9629 28.5348C11.7371 28.2703 11.7682 27.8724 12.0333 27.6475C12.2978 27.4215 12.6952 27.4528 12.9209 27.718L14.1807 29.197C14.4061 29.4615 14.375 29.8595 14.1099 30.0846C13.9915 30.1864 13.846 30.2356 13.7018 30.2356Z" fill="white"/>
<path d="M14.3317 25.8252C8.775 25.8252 4.25357 21.3037 4.25357 15.7471C4.25357 15.3986 4.5353 15.1172 4.88345 15.1172C5.23192 15.1172 5.51333 15.3986 5.51333 15.7471C5.51333 20.6099 9.46886 24.5654 14.3317 24.5654C19.1945 24.5654 23.15 20.6099 23.15 15.7471C23.15 15.3986 23.4318 15.1172 23.7799 15.1172C24.1284 15.1172 24.4098 15.3986 24.4098 15.7471C24.4098 21.3037 19.8887 25.8252 14.3317 25.8252Z" fill="white"/>
<path d="M4.88345 16.3769C4.53529 16.3769 4.25357 16.0955 4.25357 15.7471V8.81836C4.25357 8.46989 4.53529 8.18848 4.88345 8.18848C5.23192 8.18848 5.51333 8.46989 5.51333 8.81836V15.7471C5.51333 16.0955 5.23192 16.3769 4.88345 16.3769Z" fill="white"/>
<path d="M23.7799 16.3769C23.4317 16.3769 23.15 16.0955 23.15 15.7471V8.1897C23.15 7.84154 23.4317 7.55981 23.7799 7.55981C24.1284 7.55981 24.4098 7.84154 24.4098 8.1897V15.7471C24.4098 16.0955 24.1284 16.3769 23.7799 16.3769Z" fill="white"/>
<path d="M23.7799 8.81957C23.4318 8.81957 23.15 8.53815 23.15 8.18969C23.15 6.10536 21.4551 4.4104 19.3707 4.4104C19.0226 4.4104 18.7409 4.12898 18.7409 3.78052C18.7409 3.43236 19.0226 3.15063 19.3707 3.15063C22.1492 3.15063 24.4098 5.4112 24.4098 8.18969C24.4098 8.53815 24.1284 8.81957 23.7799 8.81957Z" fill="white"/>
<path d="M19.3707 4.4104C19.0226 4.4104 18.7409 4.12898 18.7409 3.78052V0.629882C18.7409 0.281417 19.0226 0 19.3707 0C19.7192 0 20.0006 0.281417 20.0006 0.629882V3.78052C20.0006 4.12898 19.7192 4.4104 19.3707 4.4104Z" fill="white"/>
<path d="M19.3707 1.25976H13.0719C12.7238 1.25976 12.442 0.978347 12.442 0.629882C12.442 0.281417 12.7238 0 13.0719 0H19.3707C19.7192 0 20.0006 0.281417 20.0006 0.629882C20.0006 0.978347 19.7192 1.25976 19.3707 1.25976Z" fill="white"/>
<path d="M4.88345 9.44822C4.53529 9.44822 4.25357 9.16681 4.25357 8.81834C4.25357 3.95552 8.20909 0 13.0719 0C13.4204 0 13.7018 0.281417 13.7018 0.629882C13.7018 0.978346 13.4204 1.25976 13.0719 1.25976C8.90386 1.25976 5.51333 4.6503 5.51333 8.81834C5.51333 9.16681 5.23192 9.44822 4.88345 9.44822Z" fill="white"/>
<path d="M23.7799 12.5976C23.6187 12.5976 23.4573 12.5358 23.3346 12.4131L20.815 9.89357C20.5687 9.64722 20.5687 9.24924 20.815 9.00288C21.0614 8.75653 21.4594 8.75653 21.7057 9.00288L24.2252 11.5224C24.4716 11.7688 24.4716 12.1667 24.2252 12.4131C24.1025 12.5358 23.9411 12.5976 23.7799 12.5976Z" fill="white"/>
<path d="M14.3317 11.9677C10.4226 11.9677 7.21353 10.0685 7.07851 9.98791C6.78079 9.80922 6.68422 9.42292 6.8626 9.12428C7.04068 8.82718 7.42636 8.72876 7.72623 8.90714C7.75637 8.92529 10.7818 10.7073 14.3311 10.7073C17.8803 10.7073 20.9058 8.92529 20.9359 8.90714C21.2364 8.72876 21.6215 8.82718 21.7995 9.12428C21.9779 9.42292 21.8814 9.80922 21.5836 9.98791C21.4498 10.0685 18.2408 11.9677 14.3317 11.9677Z" fill="white"/>
<path d="M4.88345 12.5976C4.72229 12.5976 4.56082 12.5358 4.43811 12.4131C4.19175 12.1667 4.19175 11.7688 4.43811 11.5224L6.95763 9.00288C7.20399 8.75653 7.60197 8.75653 7.84832 9.00288C8.09468 9.24924 8.09468 9.64722 7.84832 9.89357L5.3288 12.4131C5.20608 12.5358 5.04461 12.5976 4.88345 12.5976Z" fill="white"/>
<path d="M26.9336 27.3961C25.5416 27.3961 24.4092 26.2634 24.4092 24.8714C24.4092 23.4794 25.5416 22.3469 26.9336 22.3469C27.2821 22.3469 27.5635 22.6283 27.5635 22.9768C27.5635 23.325 27.2821 23.6067 26.9336 23.6067C26.2364 23.6067 25.6689 24.1735 25.6689 24.8714C25.6689 25.5695 26.2358 26.1364 26.9336 26.1364C27.2821 26.1364 27.5635 26.4178 27.5635 26.7663C27.5635 27.1144 27.2821 27.3961 26.9336 27.3961Z" fill="white"/>
<path d="M38.8965 23.6072H26.9336C26.5855 23.6072 26.3037 23.3258 26.3037 22.9773C26.3037 22.6288 26.5855 22.3474 26.9336 22.3474H38.8965C39.2449 22.3474 39.5263 22.6288 39.5263 22.9773C39.5263 23.3258 39.2449 23.6072 38.8965 23.6072Z" fill="white"/>
<path d="M38.8965 27.3962H26.9336C26.5855 27.3962 26.3037 27.1145 26.3037 26.7664C26.3037 26.4179 26.5855 26.1365 26.9336 26.1365H38.8965C39.2449 26.1365 39.5263 26.4179 39.5263 26.7664C39.5263 27.1145 39.2449 27.3962 38.8965 27.3962Z" fill="white"/>
<path d="M26.9336 40C25.5416 40 24.4092 38.8676 24.4092 37.4756C24.4092 37.1271 24.6906 36.8457 25.0391 36.8457C25.3875 36.8457 25.6689 37.1271 25.6689 37.4756C25.6689 38.1728 26.2358 38.7403 26.9336 38.7403C27.2821 38.7403 27.5635 39.022 27.5635 39.3702C27.5635 39.7186 27.2821 40 26.9336 40Z" fill="white"/>
<path d="M38.8965 40H26.9336C26.5855 40 26.3037 39.7186 26.3037 39.3701C26.3037 39.022 26.5855 38.7402 26.9336 38.7402H38.8965C39.2449 38.7402 39.5263 39.022 39.5263 39.3701C39.5263 39.7186 39.2449 40 38.8965 40Z" fill="white"/>
<path d="M38.2672 27.3961C37.919 27.3961 37.6373 27.1144 37.6373 26.7663V22.9768C37.6373 22.6283 37.919 22.3469 38.2672 22.3469C38.6156 22.3469 38.8971 22.6283 38.8971 22.9768V26.7663C38.8971 27.1144 38.6156 27.3961 38.2672 27.3961Z" fill="white"/>
<path d="M25.0391 38.1056C24.6906 38.1056 24.4092 37.8238 24.4092 37.4757V24.8716C24.4092 24.5234 24.6906 24.2417 25.0391 24.2417C25.3875 24.2417 25.6689 24.5234 25.6689 24.8716V37.4757C25.6689 37.8238 25.3875 38.1056 25.0391 38.1056Z" fill="white"/>
<path d="M38.8965 40C38.548 40 38.2666 39.7186 38.2666 39.3701V26.7664C38.2666 26.4179 38.548 26.1365 38.8965 26.1365C39.2449 26.1365 39.5264 26.4179 39.5264 26.7664V39.3701C39.5264 39.7186 39.2449 40 38.8965 40Z" fill="white"/>
<path d="M34.4854 36.8457H29.4464C29.0979 36.8457 28.8165 36.564 28.8165 36.2158C28.8165 35.8674 29.0979 35.5859 29.4464 35.5859H34.4854C34.8336 35.5859 35.1153 35.8674 35.1153 36.2158C35.1153 36.564 34.8336 36.8457 34.4854 36.8457Z" fill="white"/>
<path d="M31.9659 36.8457C31.6174 36.8457 31.336 36.564 31.336 36.2158V29.917C31.336 29.5685 31.6174 29.2871 31.9659 29.2871C32.3141 29.2871 32.5958 29.5685 32.5958 29.917V36.2158C32.5958 36.564 32.3141 36.8457 31.9659 36.8457Z" fill="white"/>
<path d="M34.4854 31.1768H29.4464C29.0979 31.1768 28.8165 30.895 28.8165 30.5469C28.8165 30.1984 29.0979 29.917 29.4464 29.917H34.4854C34.8336 29.917 35.1153 30.1984 35.1153 30.5469C35.1153 30.895 34.8336 31.1768 34.4854 31.1768Z" fill="white"/>
<path d="M35.1153 33.0662H33.8555C33.5071 33.0662 33.2257 32.7844 33.2257 32.4363C33.2257 32.0878 33.5071 31.8064 33.8555 31.8064H35.1153C35.4635 31.8064 35.7452 32.0878 35.7452 32.4363C35.7452 32.7844 35.4635 33.0662 35.1153 33.0662Z" fill="white"/>
<path d="M30.0763 33.0662H28.8165C28.468 33.0662 28.1866 32.7844 28.1866 32.4363C28.1866 32.0878 28.468 31.8064 28.8165 31.8064H30.0763C30.4244 31.8064 30.7061 32.0878 30.7061 32.4363C30.7061 32.7844 30.4244 33.0662 30.0763 33.0662Z" fill="white"/>
</g>
<defs>
<clipPath id="clip0">
<rect width="40" height="40" fill="white"/>
</clipPath>
</defs>
</svg>
