<svg width="25" height="25" viewBox="0 0 25 25" fill="none" xmlns="http://www.w3.org/2000/svg">
<circle cx="12.5" cy="12.5" r="12.5" fill="#EAEAEA"/>
<path d="M17.8391 18.2144C18.1314 18.2144 18.3846 18.1179 18.5998 17.9274L14.9167 14.2442C14.8283 14.3074 14.7427 14.369 14.6618 14.4275C14.3862 14.6305 14.1625 14.789 13.9907 14.9026C13.8189 15.0164 13.5904 15.1324 13.3051 15.2508C13.0197 15.3694 12.7538 15.4285 12.5071 15.4285H12.4999H12.4926C12.2459 15.4285 11.98 15.3694 11.6946 15.2508C11.4092 15.1324 11.1806 15.0164 11.009 14.9026C10.8373 14.789 10.6137 14.6306 10.3379 14.4275C10.2611 14.3711 10.1759 14.3093 10.0837 14.2432L6.3999 17.9274C6.61513 18.1179 6.8685 18.2144 7.1607 18.2144H17.8391Z" fill="#707070"/>
<path d="M6.73278 11.9247C6.45718 11.7409 6.21277 11.5305 6 11.2935V16.8972L9.24628 13.6509C8.59684 13.1975 7.76007 12.6228 6.73278 11.9247Z" fill="#707070"/>
<path d="M18.2745 11.9247C17.2864 12.5935 16.4466 13.1692 15.755 13.6522L19 16.8974V11.2935C18.7919 11.5257 18.5501 11.736 18.2745 11.9247Z" fill="#707070"/>
<path d="M17.8392 8H7.16076C6.78823 8 6.50181 8.1258 6.30117 8.37714C6.10036 8.6286 6.00012 8.94307 6.00012 9.32022C6.00012 9.62485 6.13314 9.95493 6.39907 10.3105C6.665 10.666 6.94797 10.9452 7.24783 11.1483C7.41222 11.2645 7.90797 11.6091 8.73506 12.1821C9.18155 12.4915 9.56983 12.7612 9.90349 12.9939C10.1879 13.1921 10.4332 13.3637 10.6357 13.5061C10.6589 13.5224 10.6955 13.5486 10.744 13.5833C10.7963 13.6208 10.8625 13.6685 10.9441 13.7274C11.1012 13.8411 11.2318 13.933 11.3358 14.0032C11.4396 14.0734 11.5655 14.1518 11.7131 14.2389C11.8606 14.3259 11.9997 14.3913 12.1303 14.4348C12.2608 14.4783 12.3817 14.5001 12.4929 14.5001H12.5002H12.5074C12.6186 14.5001 12.7395 14.4783 12.8701 14.4348C13.0007 14.3913 13.1397 14.326 13.2873 14.2389C13.4347 14.1518 13.5604 14.0732 13.6646 14.0032C13.7686 13.933 13.8991 13.8411 14.0563 13.7274C14.1378 13.6685 14.2039 13.6208 14.2562 13.5834C14.3048 13.5486 14.3413 13.5226 14.3647 13.5061C14.5224 13.3963 14.7683 13.2254 15.0988 12.9959C15.7002 12.5781 16.586 11.963 17.7598 11.1483C18.1128 10.9018 18.4077 10.6042 18.6448 10.2561C18.8814 9.90798 19 9.54283 19 9.16076C19 8.84154 18.885 8.56839 18.6555 8.34089C18.4257 8.11367 18.1536 8 17.8392 8Z" fill="#707070"/>
</svg>
