<svg width="25" height="25" viewBox="0 0 25 25" fill="none" xmlns="http://www.w3.org/2000/svg">
<circle cx="12.5" cy="12.5" r="12.5" fill="#EAEAEA"/>
<path d="M18.7086 16.2824L16.7009 14.27C16.301 13.8708 15.6388 13.8829 15.225 14.2978L14.2135 15.3113C14.1496 15.276 14.0835 15.2392 14.0139 15.2C13.3752 14.8453 12.501 14.3592 11.5811 13.4365C10.6584 12.5119 10.1729 11.6343 9.81792 10.9937C9.78046 10.9259 9.74457 10.8604 9.70913 10.7983L10.388 10.1189L10.7217 9.78402C11.1362 9.36851 11.1476 8.70498 10.7486 8.30464L8.74099 6.29199C8.34204 5.89221 7.67952 5.90434 7.26507 6.31984L6.69924 6.8902L6.71471 6.90559C6.52498 7.14823 6.36644 7.42807 6.24845 7.72986C6.13969 8.01712 6.07198 8.29124 6.04102 8.56592C5.77592 10.7686 6.78021 12.7817 9.50573 15.5134C13.2732 19.2892 16.3093 19.004 16.4403 18.99C16.7256 18.9559 16.999 18.8875 17.2768 18.7794C17.5753 18.6625 17.8543 18.5039 18.0962 18.3141L18.1086 18.3251L18.6818 17.7625C19.0954 17.3471 19.1073 16.6834 18.7086 16.2824Z" fill="#707070"/>
</svg>
