<svg width="41" height="41" viewBox="0 0 41 41" fill="none" xmlns="http://www.w3.org/2000/svg">
<path d="M16.8965 21.7012H24.1035V24.1035H16.8965V21.7012Z" fill="#DA955C"/>
<path d="M33.2628 24.1035H26.5059V25.3047C26.5059 25.9685 25.9685 26.5059 25.3047 26.5059H15.6953C15.0315 26.5059 14.4941 25.9685 14.4941 25.3047V24.1035H7.73724C6.18416 24.1035 4.81063 23.1135 4.3189 21.6402L0 8.68127V34.9141C0 36.901 1.61658 38.5176 3.60352 38.5176H37.3965C39.3834 38.5176 41 36.901 41 34.9141V8.68221L36.6808 21.6402C36.1894 23.1135 34.8158 24.1035 33.2628 24.1035Z" fill="#DA955C"/>
<path d="M25.3047 2.48242H15.6953C13.7084 2.48242 12.0918 4.099 12.0918 6.08594V7.28711H2.06671L6.59707 20.8801C6.76129 21.3715 7.21986 21.7012 7.73724 21.7012H14.4941V20.5C14.4941 19.8362 15.0315 19.2988 15.6953 19.2988H25.3047C25.9685 19.2988 26.5059 19.8362 26.5059 20.5V21.7012H33.2628C33.7802 21.7012 34.2387 21.3715 34.4029 20.8801L38.9336 7.28711H28.9082V6.08594C28.9082 4.099 27.2916 2.48242 25.3047 2.48242ZM14.4941 7.28711V6.08594C14.4941 5.4231 15.0325 4.88477 15.6953 4.88477H25.3047C25.9675 4.88477 26.5059 5.4231 26.5059 6.08594V7.28711H14.4941Z" fill="#DA955C"/>
</svg>
