<svg width="38" height="31" viewBox="0 0 38 31" fill="none" xmlns="http://www.w3.org/2000/svg">
<path d="M7.84516 -2.63622e-06C11.0323 -2.3576e-06 13.443 1.31217 15.0774 3.9365C16.4667 6.15079 17.1613 8.85714 17.1613 12.0556C17.1613 16.1561 16.1398 19.8466 14.0968 23.127C11.972 26.4074 8.78494 29.0317 4.53548 31L3.43225 28.7857C5.96559 27.7196 8.17204 26.0384 10.0516 23.7421C11.8495 21.4458 12.7484 19.1085 12.7484 16.7302C12.7484 15.746 12.6258 14.8849 12.3806 14.1468C11.0731 15.213 9.56129 15.746 7.84516 15.746C5.63871 15.746 3.8 15.0079 2.32903 13.5317C0.776346 12.1376 1.81391e-06 10.2513 2.02183e-06 7.87301C2.2154e-06 5.65873 0.776347 3.77248 2.32904 2.21428C3.8 0.738091 5.63871 -2.82911e-06 7.84516 -2.63622e-06ZM28.6839 -8.14442e-07C31.871 -5.35817e-07 34.2817 1.31217 35.9161 3.93651C37.3054 6.15079 38 8.85714 38 12.0556C38 16.1561 36.9785 19.8466 34.9355 23.127C32.8108 26.4074 29.6237 29.0317 25.3742 31L24.271 28.7857C26.8043 27.7196 29.0108 26.0384 30.8903 23.7421C32.6882 21.4458 33.5871 19.1085 33.5871 16.7302C33.5871 15.746 33.4645 14.8849 33.2194 14.1468C31.9118 15.213 30.4 15.746 28.6839 15.746C26.4774 15.746 24.6387 15.0079 23.1677 13.5317C21.6151 12.1376 20.8387 10.2513 20.8387 7.87301C20.8387 5.65873 21.6151 3.77248 23.1677 2.21428C24.6387 0.738093 26.4774 -1.00734e-06 28.6839 -8.14442e-07Z" fill="#ECD4C0"/>
</svg>
