<svg width="38" height="31" viewBox="0 0 38 31" fill="none" xmlns="http://www.w3.org/2000/svg">
<path d="M30.1548 31C26.9677 31 24.557 29.6878 22.9226 27.0635C21.5333 24.8492 20.8387 22.1429 20.8387 18.9444C20.8387 14.8439 21.8602 11.1534 23.9032 7.87302C26.028 4.5926 29.2151 1.96826 33.4645 0L34.5677 2.21429C32.0344 3.28042 29.828 4.96164 27.9484 7.25794C26.1505 9.55423 25.2516 11.8915 25.2516 14.2698C25.2516 15.254 25.3742 16.1151 25.6194 16.8532C26.9269 15.787 28.4387 15.254 30.1548 15.254C32.3613 15.254 34.2 15.9921 35.671 17.4683C37.2237 18.8624 38 20.7487 38 23.127C38 25.3413 37.2237 27.2275 35.671 28.7857C34.2 30.2619 32.3613 31 30.1548 31ZM9.31613 31C6.12903 31 3.71828 29.6878 2.08387 27.0635C0.694624 24.8492 0 22.1429 0 18.9444C0 14.8439 1.02151 11.1534 3.06452 7.87302C5.18925 4.5926 8.37634 1.96826 12.6258 0L13.729 2.21429C11.1957 3.28042 8.98925 4.96164 7.10968 7.25794C5.31183 9.55423 4.4129 11.8915 4.4129 14.2698C4.4129 15.254 4.53548 16.1151 4.78065 16.8532C6.08817 15.787 7.6 15.254 9.31613 15.254C11.5226 15.254 13.3613 15.9921 14.8323 17.4683C16.3849 18.8624 17.1613 20.7487 17.1613 23.127C17.1613 25.3413 16.3849 27.2275 14.8323 28.7857C13.3613 30.2619 11.5226 31 9.31613 31Z" fill="#ECD4C0"/>
</svg>
