<svg width="40" height="40" viewBox="0 0 40 40" fill="none" xmlns="http://www.w3.org/2000/svg">
<path d="M28.4061 24.5696C28.0478 24.2487 27.4974 24.28 27.1783 24.6374C25.3644 26.6644 22.7487 27.8261 20 27.8261C17.2522 27.8261 14.6357 26.6644 12.8217 24.6374C12.5009 24.28 11.9522 24.2487 11.5939 24.5696C11.2357 24.8896 11.2061 25.4391 11.5261 25.7974C13.6696 28.1922 16.7583 29.5652 20 29.5652C23.2426 29.5652 26.3313 28.1913 28.4739 25.7974C28.7939 25.4391 28.7635 24.8896 28.4061 24.5696Z" fill="white"/>
<path d="M20 0C8.97217 0 0 8.97217 0 20C0 31.0278 8.97217 40 20 40C31.0278 40 40 31.0278 40 20C40 8.97217 31.0278 0 20 0ZM20 38.2609C9.93043 38.2609 1.73913 30.0696 1.73913 20C1.73913 9.93043 9.93043 1.73913 20 1.73913C30.0696 1.73913 38.2609 9.93043 38.2609 20C38.2609 30.0696 30.0696 38.2609 20 38.2609Z" fill="white"/>
<path d="M26.9565 13.913C24.5591 13.913 22.6087 15.8635 22.6087 18.2609C22.6087 18.7409 22.9983 19.1304 23.4783 19.1304C23.9583 19.1304 24.3478 18.7409 24.3478 18.2609C24.3478 16.8226 25.5183 15.6522 26.9565 15.6522C28.3948 15.6522 29.5652 16.8226 29.5652 18.2609C29.5652 18.7409 29.9548 19.1304 30.4348 19.1304C30.9148 19.1304 31.3044 18.7409 31.3044 18.2609C31.3044 15.8635 29.3539 13.913 26.9565 13.913Z" fill="white"/>
<path d="M15.6522 18.2609C15.6522 18.7409 16.0417 19.1304 16.5217 19.1304C17.0017 19.1304 17.3913 18.7409 17.3913 18.2609C17.3913 15.8635 15.4409 13.913 13.0435 13.913C10.6461 13.913 8.69565 15.8635 8.69565 18.2609C8.69565 18.7409 9.08521 19.1304 9.56521 19.1304C10.0452 19.1304 10.4348 18.7409 10.4348 18.2609C10.4348 16.8226 11.6052 15.6522 13.0435 15.6522C14.4817 15.6522 15.6522 16.8226 15.6522 18.2609Z" fill="white"/>
</svg>
