<svg width="30" height="30" viewBox="0 0 30 30" fill="none" xmlns="http://www.w3.org/2000/svg">
<path d="M27.669 11.819C28.2122 11.2895 28.404 10.5123 28.1696 9.79086C27.9351 9.0694 27.3232 8.55348 26.5725 8.44443L20.0082 7.49059C19.8794 7.47189 19.768 7.39098 19.7103 7.27414L16.7747 1.326C16.4391 0.645723 15.7592 0.223145 15.0006 0.223145C14.242 0.223145 13.5622 0.645723 13.2265 1.326L10.2909 7.2742C10.2332 7.39098 10.1219 7.47189 9.99298 7.49064L3.42884 8.44443C2.67813 8.55348 2.06624 9.0694 1.83175 9.79086C1.59726 10.5123 1.78909 11.2895 2.33237 11.819L7.08228 16.449C7.1755 16.5399 7.2181 16.6709 7.19606 16.7993L6.07476 23.3369C5.94655 24.0846 6.24808 24.826 6.86179 25.2719C7.4755 25.7179 8.27401 25.7755 8.94538 25.4226L14.8165 22.336C14.9318 22.2753 15.0695 22.2753 15.1849 22.336L21.0561 25.4226C21.3481 25.5761 21.6641 25.652 21.9786 25.652C22.387 25.652 22.7928 25.524 23.1395 25.2719C23.7532 24.8259 24.0548 24.0845 23.9265 23.3369L22.8052 16.7992C22.7832 16.6708 22.8258 16.5399 22.919 16.4489L27.669 11.819ZM21.2454 17.0669L22.3667 23.6046C22.4042 23.8234 22.2691 23.9482 22.2093 23.9916C22.1494 24.0349 21.989 24.125 21.7926 24.0216L15.9214 20.935C15.6332 20.7835 15.317 20.7077 15.0008 20.7077C14.6845 20.7077 14.3683 20.7835 14.0801 20.9349L8.20897 24.0215C8.01245 24.1248 7.85208 24.0349 7.79226 23.9915C7.73243 23.948 7.59731 23.8233 7.63487 23.6045L8.75618 17.0669C8.86628 16.425 8.65364 15.7704 8.18718 15.3157L3.43728 10.6857C3.27831 10.5307 3.31429 10.3504 3.3372 10.2801C3.35999 10.2097 3.43692 10.0426 3.65659 10.0108L10.2207 9.05691C10.8651 8.96328 11.4221 8.55875 11.7104 7.97463L14.646 2.02643C14.7442 1.82738 14.9268 1.80588 15.0008 1.80588C15.0747 1.80588 15.2573 1.82732 15.3556 2.02643V2.02648L18.2912 7.97469C18.5794 8.55881 19.1363 8.96334 19.7808 9.05697L26.345 10.0108C26.5646 10.0427 26.6415 10.2097 26.6644 10.2801C26.6872 10.3505 26.7233 10.5308 26.5642 10.6858L21.8143 15.3158C21.3479 15.7704 21.1353 16.425 21.2454 17.0669Z" fill="#EAA064"/>
<path d="M24.2451 1.32573C23.8914 1.06886 23.3966 1.14726 23.1397 1.50081L22.2996 2.65698C22.0428 3.01054 22.1211 3.50548 22.4747 3.76236C22.6153 3.86437 22.778 3.91353 22.9392 3.91353C23.184 3.91353 23.4253 3.80038 23.5801 3.58734L24.4201 2.43116C24.677 2.07755 24.5987 1.58261 24.2451 1.32573Z" fill="#EAA064"/>
<path d="M7.69747 2.65226L6.85741 1.49609C6.60059 1.14265 6.10571 1.06425 5.75203 1.32101C5.39848 1.57789 5.32008 2.07283 5.57696 2.42638L6.41702 3.58256C6.57188 3.79578 6.81317 3.90887 7.05798 3.90887C7.21928 3.90887 7.38206 3.85971 7.52245 3.75764C7.876 3.50082 7.9544 3.00588 7.69747 2.65226Z" fill="#EAA064"/>
<path d="M2.90343 17.9782C2.76837 17.5626 2.32194 17.335 1.90622 17.4701L0.547019 17.9118C0.131297 18.0468 -0.0961056 18.4934 0.038953 18.909C0.147586 19.2435 0.45784 19.4561 0.791414 19.4561C0.872449 19.4561 0.95489 19.4435 1.03616 19.417L2.39536 18.9754C2.81102 18.8403 3.03848 18.3939 2.90343 17.9782Z" fill="#EAA064"/>
<path d="M15.0004 26.7649C14.5633 26.7649 14.209 27.1192 14.209 27.5563V28.9855C14.209 29.4225 14.5633 29.7768 15.0004 29.7768C15.4374 29.7768 15.7917 29.4225 15.7917 28.9855V27.5563C15.7917 27.1191 15.4375 26.7649 15.0004 26.7649Z" fill="#EAA064"/>
<path d="M29.453 17.913L28.0938 17.4713C27.6782 17.3363 27.2316 17.5637 27.0966 17.9794C26.9615 18.3951 27.1889 18.8415 27.6046 18.9766L28.9638 19.4183C29.0451 19.4447 29.1275 19.4572 29.2085 19.4572C29.5422 19.4572 29.8524 19.2446 29.9611 18.9101C30.0961 18.4944 29.8686 18.048 29.453 17.913Z" fill="#EAA064"/>
</svg>
