<svg width="40" height="40" viewBox="0 0 40 40" fill="none" xmlns="http://www.w3.org/2000/svg">
<path d="M33.3333 36H30V32C30 26.9393 27.2353 22.3733 22.8573 20C27.2353 17.6267 30 13.0607 30 8V4H33.3333C34.436 4 35.3333 3.10267 35.3333 2C35.3333 0.897333 34.436 0 33.3333 0H6.66666C5.56399 0 4.66666 0.897333 4.66666 2C4.66666 3.10267 5.56399 4 6.66666 4H9.99999V8C9.99999 13.0607 12.7647 17.6267 17.1427 20C12.7647 22.3733 9.99999 26.9393 9.99999 32V36H6.66666C5.56399 36 4.66666 36.8973 4.66666 38C4.66666 39.1027 5.56399 40 6.66666 40H33.3333C34.436 40 35.3333 39.1027 35.3333 38C35.3333 36.8973 34.436 36 33.3333 36ZM6.66666 2.66667C6.29932 2.66667 5.99999 2.368 5.99999 2C5.99999 1.632 6.29932 1.33333 6.66666 1.33333H33.3333C33.7007 1.33333 34 1.632 34 2C34 2.368 33.7007 2.66667 33.3333 2.66667H30H9.99999H6.66666ZM11.3333 8V4H28.6667V8C28.6667 12.9513 25.7393 17.3853 21.198 19.3333H18.8013C14.2607 17.3853 11.3333 12.9513 11.3333 8ZM11.3333 32C11.3333 27.0487 14.2607 22.6147 18.802 20.6667H21.1987C25.7393 22.6147 28.6667 27.0487 28.6667 32V36C28.6667 35.632 28.368 35.3333 28 35.3333C27.632 35.3333 27.3333 35.632 27.3333 36H26C26 35.632 25.7013 35.3333 25.3333 35.3333C24.9653 35.3333 24.6667 35.632 24.6667 36H23.3333C23.3333 35.632 23.0347 35.3333 22.6667 35.3333C22.2987 35.3333 22 35.632 22 36H20.6667C20.6667 35.632 20.368 35.3333 20 35.3333C19.632 35.3333 19.3333 35.632 19.3333 36H18C18 35.632 17.7013 35.3333 17.3333 35.3333C16.9653 35.3333 16.6667 35.632 16.6667 36H15.3333C15.3333 35.632 15.0347 35.3333 14.6667 35.3333C14.2987 35.3333 14 35.632 14 36H12.6667C12.6667 35.632 12.368 35.3333 12 35.3333C11.632 35.3333 11.3333 35.632 11.3333 36V32ZM33.3333 38.6667H6.66666C6.29932 38.6667 5.99999 38.368 5.99999 38C5.99999 37.632 6.29932 37.3333 6.66666 37.3333H9.99999H30H33.3333C33.7007 37.3333 34 37.632 34 38C34 38.368 33.7007 38.6667 33.3333 38.6667Z" fill="white"/>
<path d="M13.3333 35.3333C13.7015 35.3333 14 35.0349 14 34.6667C14 34.2985 13.7015 34 13.3333 34C12.9651 34 12.6667 34.2985 12.6667 34.6667C12.6667 35.0349 12.9651 35.3333 13.3333 35.3333Z" fill="white"/>
<path d="M16 35.3333C16.3682 35.3333 16.6666 35.0349 16.6666 34.6667C16.6666 34.2985 16.3682 34 16 34C15.6318 34 15.3333 34.2985 15.3333 34.6667C15.3333 35.0349 15.6318 35.3333 16 35.3333Z" fill="white"/>
<path d="M18.6667 35.3333C19.0349 35.3333 19.3333 35.0349 19.3333 34.6667C19.3333 34.2985 19.0349 34 18.6667 34C18.2985 34 18 34.2985 18 34.6667C18 35.0349 18.2985 35.3333 18.6667 35.3333Z" fill="white"/>
<path d="M21.3333 35.3333C21.7015 35.3333 22 35.0349 22 34.6667C22 34.2985 21.7015 34 21.3333 34C20.9651 34 20.6667 34.2985 20.6667 34.6667C20.6667 35.0349 20.9651 35.3333 21.3333 35.3333Z" fill="white"/>
<path d="M24 35.3333C24.3682 35.3333 24.6666 35.0349 24.6666 34.6667C24.6666 34.2985 24.3682 34 24 34C23.6318 34 23.3333 34.2985 23.3333 34.6667C23.3333 35.0349 23.6318 35.3333 24 35.3333Z" fill="white"/>
<path d="M26.6667 35.3333C27.0349 35.3333 27.3333 35.0349 27.3333 34.6667C27.3333 34.2985 27.0349 34 26.6667 34C26.2985 34 26 34.2985 26 34.6667C26 35.0349 26.2985 35.3333 26.6667 35.3333Z" fill="white"/>
<path d="M14.6667 34C15.0349 34 15.3333 33.7015 15.3333 33.3334C15.3333 32.9652 15.0349 32.6667 14.6667 32.6667C14.2985 32.6667 14 32.9652 14 33.3334C14 33.7015 14.2985 34 14.6667 34Z" fill="white"/>
<path d="M17.3333 34C17.7015 34 18 33.7015 18 33.3334C18 32.9652 17.7015 32.6667 17.3333 32.6667C16.9651 32.6667 16.6667 32.9652 16.6667 33.3334C16.6667 33.7015 16.9651 34 17.3333 34Z" fill="white"/>
<path d="M20 22.6666C20.3682 22.6666 20.6666 22.3682 20.6666 22C20.6666 21.6318 20.3682 21.3333 20 21.3333C19.6318 21.3333 19.3333 21.6318 19.3333 22C19.3333 22.3682 19.6318 22.6666 20 22.6666Z" fill="white"/>
<path d="M16 15.3333C16.3682 15.3333 16.6666 15.0349 16.6666 14.6667C16.6666 14.2985 16.3682 14 16 14C15.6318 14 15.3333 14.2985 15.3333 14.6667C15.3333 15.0349 15.6318 15.3333 16 15.3333Z" fill="white"/>
<path d="M18.6667 15.3333C19.0349 15.3333 19.3333 15.0349 19.3333 14.6667C19.3333 14.2985 19.0349 14 18.6667 14C18.2985 14 18 14.2985 18 14.6667C18 15.0349 18.2985 15.3333 18.6667 15.3333Z" fill="white"/>
<path d="M21.3333 15.3333C21.7015 15.3333 22 15.0349 22 14.6667C22 14.2985 21.7015 14 21.3333 14C20.9651 14 20.6667 14.2985 20.6667 14.6667C20.6667 15.0349 20.9651 15.3333 21.3333 15.3333Z" fill="white"/>
<path d="M24 15.3333C24.3682 15.3333 24.6666 15.0349 24.6666 14.6667C24.6666 14.2985 24.3682 14 24 14C23.6318 14 23.3333 14.2985 23.3333 14.6667C23.3333 15.0349 23.6318 15.3333 24 15.3333Z" fill="white"/>
<path d="M22.6667 14C23.0349 14 23.3333 13.7015 23.3333 13.3334C23.3333 12.9652 23.0349 12.6667 22.6667 12.6667C22.2985 12.6667 22 12.9652 22 13.3334C22 13.7015 22.2985 14 22.6667 14Z" fill="white"/>
<path d="M24 12.6666C24.3682 12.6666 24.6666 12.3682 24.6666 12C24.6666 11.6318 24.3682 11.3333 24 11.3333C23.6318 11.3333 23.3333 11.6318 23.3333 12C23.3333 12.3682 23.6318 12.6666 24 12.6666Z" fill="white"/>
<path d="M17.3333 14C17.7015 14 18 13.7015 18 13.3334C18 12.9652 17.7015 12.6667 17.3333 12.6667C16.9651 12.6667 16.6667 12.9652 16.6667 13.3334C16.6667 13.7015 16.9651 14 17.3333 14Z" fill="white"/>
<path d="M20 14C20.3682 14 20.6666 13.7015 20.6666 13.3334C20.6666 12.9652 20.3682 12.6667 20 12.6667C19.6318 12.6667 19.3333 12.9652 19.3333 13.3334C19.3333 13.7015 19.6318 14 20 14Z" fill="white"/>
<path d="M16 12.6666C16.3682 12.6666 16.6666 12.3682 16.6666 12C16.6666 11.6318 16.3682 11.3333 16 11.3333C15.6318 11.3333 15.3333 11.6318 15.3333 12C15.3333 12.3682 15.6318 12.6666 16 12.6666Z" fill="white"/>
<path d="M17.3333 16.6666C17.7015 16.6666 18 16.3682 18 16C18 15.6318 17.7015 15.3333 17.3333 15.3333C16.9651 15.3333 16.6667 15.6318 16.6667 16C16.6667 16.3682 16.9651 16.6666 17.3333 16.6666Z" fill="white"/>
<path d="M18.6667 18C19.0349 18 19.3333 17.7015 19.3333 17.3334C19.3333 16.9652 19.0349 16.6667 18.6667 16.6667C18.2985 16.6667 18 16.9652 18 17.3334C18 17.7015 18.2985 18 18.6667 18Z" fill="white"/>
<path d="M21.3333 18C21.7015 18 22 17.7015 22 17.3334C22 16.9652 21.7015 16.6667 21.3333 16.6667C20.9651 16.6667 20.6667 16.9652 20.6667 17.3334C20.6667 17.7015 20.9651 18 21.3333 18Z" fill="white"/>
<path d="M20 16.6666C20.3682 16.6666 20.6666 16.3682 20.6666 16C20.6666 15.6318 20.3682 15.3333 20 15.3333C19.6318 15.3333 19.3333 15.6318 19.3333 16C19.3333 16.3682 19.6318 16.6666 20 16.6666Z" fill="white"/>
<path d="M22.6667 16.6666C23.0349 16.6666 23.3333 16.3682 23.3333 16C23.3333 15.6318 23.0349 15.3333 22.6667 15.3333C22.2985 15.3333 22 15.6318 22 16C22 16.3682 22.2985 16.6666 22.6667 16.6666Z" fill="white"/>
<path d="M20 24.6666C20.3682 24.6666 20.6666 24.3682 20.6666 24C20.6666 23.6318 20.3682 23.3333 20 23.3333C19.6318 23.3333 19.3333 23.6318 19.3333 24C19.3333 24.3682 19.6318 24.6666 20 24.6666Z" fill="white"/>
<path d="M20 26.6667C20.3682 26.6667 20.6666 26.3682 20.6666 26C20.6666 25.6318 20.3682 25.3333 20 25.3333C19.6318 25.3333 19.3333 25.6318 19.3333 26C19.3333 26.3682 19.6318 26.6667 20 26.6667Z" fill="white"/>
<path d="M20 28.6666C20.3682 28.6666 20.6666 28.3682 20.6666 28C20.6666 27.6318 20.3682 27.3333 20 27.3333C19.6318 27.3333 19.3333 27.6318 19.3333 28C19.3333 28.3682 19.6318 28.6666 20 28.6666Z" fill="white"/>
<path d="M20 30.6666C20.3682 30.6666 20.6666 30.3682 20.6666 30C20.6666 29.6318 20.3682 29.3333 20 29.3333C19.6318 29.3333 19.3333 29.6318 19.3333 30C19.3333 30.3682 19.6318 30.6666 20 30.6666Z" fill="white"/>
<path d="M20 32.6666C20.3682 32.6666 20.6666 32.3682 20.6666 32C20.6666 31.6318 20.3682 31.3333 20 31.3333C19.6318 31.3333 19.3333 31.6318 19.3333 32C19.3333 32.3682 19.6318 32.6666 20 32.6666Z" fill="white"/>
<path d="M22.6667 34C23.0349 34 23.3333 33.7015 23.3333 33.3334C23.3333 32.9652 23.0349 32.6667 22.6667 32.6667C22.2985 32.6667 22 32.9652 22 33.3334C22 33.7015 22.2985 34 22.6667 34Z" fill="white"/>
<path d="M25.3333 34C25.7015 34 26 33.7015 26 33.3334C26 32.9652 25.7015 32.6667 25.3333 32.6667C24.9651 32.6667 24.6667 32.9652 24.6667 33.3334C24.6667 33.7015 24.9651 34 25.3333 34Z" fill="white"/>
</svg>
