<svg width="41" height="41" viewBox="0 0 41 41" fill="none" xmlns="http://www.w3.org/2000/svg">
<path d="M24.7417 9.1701C26.6375 10.3587 27.9668 12.3701 28.2088 14.7048C28.9819 15.0661 29.84 15.2738 30.7497 15.2738C34.071 15.2738 36.7629 12.5819 36.7629 9.26118C36.7629 5.93994 34.071 3.24805 30.7497 3.24805C27.4602 3.24907 24.7919 5.89286 24.7417 9.1701ZM20.8024 21.4819C24.1236 21.4819 26.8155 18.7895 26.8155 15.4687C26.8155 12.148 24.1231 9.45612 20.8024 9.45612C17.4817 9.45612 14.7882 12.1485 14.7882 15.4692C14.7882 18.79 17.4817 21.4819 20.8024 21.4819ZM23.3531 21.8917H18.2507C14.0054 21.8917 10.5516 25.346 10.5516 29.5913V35.8311L10.5675 35.9288L10.9973 36.0634C15.0487 37.3293 18.5685 37.7514 21.4655 37.7514C27.1241 37.7514 30.4039 36.1381 30.606 36.0353L31.0076 35.8321H31.0506V29.5913C31.0521 25.346 27.5984 21.8917 23.3531 21.8917ZM33.3014 15.6841H28.2385C28.1837 17.7098 27.319 19.5339 25.9513 20.8459C29.7249 21.968 32.4858 25.4673 32.4858 29.6005V31.5234C37.4848 31.3402 40.3655 29.9234 40.5554 29.8282L40.957 29.6246H41V23.3827C41 19.1379 37.5462 15.6841 33.3014 15.6841ZM10.2513 15.2748C11.4276 15.2748 12.5221 14.9315 13.4492 14.3466C13.7439 12.4243 14.7744 10.7445 16.2465 9.60041C16.2526 9.48784 16.2634 9.3763 16.2634 9.26271C16.2634 5.94147 13.571 3.24958 10.2513 3.24958C6.92953 3.24958 4.23815 5.94147 4.23815 9.26271C4.23815 12.5824 6.92953 15.2748 10.2513 15.2748ZM15.6514 20.8459C14.2904 19.5406 13.4287 17.7262 13.3658 15.7128C13.178 15.699 12.9923 15.6841 12.8009 15.6841H7.69908C3.45376 15.6841 0 19.1379 0 23.3827V29.6235L0.0158617 29.7197L0.445663 29.8553C3.69578 30.87 6.59643 31.3376 9.11589 31.485V29.6005C9.11691 25.4673 11.8769 21.969 15.6514 20.8459Z" fill="white"/>
</svg>
