<svg width="12" height="12" viewBox="0 0 12 12" fill="none" xmlns="http://www.w3.org/2000/svg">
<path d="M11.7141 11.6164L8.34763 8.11539C9.20629 7.25424 9.73826 6.06706 9.73826 4.75777C9.73826 2.1342 7.60406 0 4.98049 0C2.35692 0 0.222717 2.1342 0.222717 4.75777C0.222717 7.38134 2.35692 9.51554 4.98049 9.51554C6.13209 9.51554 7.189 9.10388 8.01277 8.4208L11.3874 11.9304C11.4318 11.9769 11.4912 12 11.5507 12C11.6074 12 11.6638 11.9789 11.7077 11.9368C11.7979 11.85 11.8006 11.7066 11.7141 11.6164ZM4.98049 9.06242C2.60681 9.06242 0.675838 7.13144 0.675838 4.75777C0.675838 2.3841 2.60681 0.453121 4.98049 0.453121C7.35416 0.453121 9.28513 2.3841 9.28513 4.75777C9.28513 7.13144 7.35393 9.06242 4.98049 9.06242Z" fill="#757575"/>
</svg>
